<mxfile host="Electron" agent="Mozilla/5.0 (X11; Linux x86_64) AppleWebKit/537.36 (KHTML, like Gecko) draw.io/26.1.1 Chrome/132.0.6834.210 Electron/34.3.3 Safari/537.36" version="26.1.1">
  <diagram name="Page-1" id="yljEeoYWbGGZ5QbAB9Ge">
    <mxGraphModel dx="1050" dy="623" grid="1" gridSize="10" guides="1" tooltips="1" connect="1" arrows="1" fold="1" page="1" pageScale="1" pageWidth="850" pageHeight="1100" math="0" shadow="0">
      <root>
        <mxCell id="0" />
        <mxCell id="1" parent="0" />
        <mxCell id="fakd-Xu31UxTlEahAAD4-51" value="ETL" style="rounded=0;whiteSpace=wrap;html=1;strokeColor=none;fillColor=light-dark(#B3B3B3,var(--ge-dark-color, #121212));" parent="1" vertex="1">
          <mxGeometry x="425" y="374.34000000000003" width="70" height="37.73" as="geometry" />
        </mxCell>
        <mxCell id="ShxSNI-J_DJoyCShoE9Y-34" style="rounded=0;orthogonalLoop=1;jettySize=auto;html=1;" parent="1" source="fakd-Xu31UxTlEahAAD4-22" target="ShxSNI-J_DJoyCShoE9Y-4" edge="1">
          <mxGeometry relative="1" as="geometry">
            <mxPoint x="241.3800000000001" y="305.96000000000004" as="targetPoint" />
          </mxGeometry>
        </mxCell>
        <mxCell id="fakd-Xu31UxTlEahAAD4-22" value="" style="shape=image;verticalLabelPosition=bottom;labelBackgroundColor=default;verticalAlign=top;aspect=fixed;imageAspect=0;editableCssRules=.*;image=data:image/svg+xml,PHN2ZyB4bWxuczp4bGluaz0iaHR0cDovL3d3dy53My5vcmcvMTk5OS94bGluayIgeG1sbnM9Imh0dHA6Ly93d3cudzMub3JnLzIwMDAvc3ZnIiB4bWw6c3BhY2U9InByZXNlcnZlIiBzdHlsZT0iZW5hYmxlLWJhY2tncm91bmQ6bmV3IDAgMCAxMDkgOTEuNDsiIHZpZXdCb3g9IjAuMDA3MjE2NjkxOTcwODI1MTk1IDAuMDI1MDAyNDc5NTUzMjIyNjU2IDEwOC45OTI4MDU0ODA5NTcwMyA5MS4zNzQ5ODQ3NDEyMTA5NCIgeT0iMHB4IiB4PSIwcHgiIGlkPSJMYXllcl8xIiB2ZXJzaW9uPSIxLjEiIHdpZHRoPSIxMDguOTkyODA1NDgwOTU3MDMiIGhlaWdodD0iOTEuMzc0OTg0NzQxMjEwOTQiPiYjeGE7PHN0eWxlIHR5cGU9InRleHQvY3NzIj4mI3hhOwkuc3Qwe2ZpbGw6IzAwOUVEQjt9JiN4YTs8L3N0eWxlPiYjeGE7PGc+JiN4YTsJPGc+JiN4YTsJCTxnPiYjeGE7CQkJPGc+JiN4YTsJCQkJPHBhdGggZD0iTTg2LjQsODMuMmMtMi45LDEuNC02LjEsMS44LTkuMywxLjFjLTIuMi0wLjUtNC4yLTEuMi02LjItMi4xbC00LjQtMS44Yy0zLjgtMS4yLTcuOS0xLjMtMTEuOC0wLjNoLTAuNCYjMTA7JiM5OyYjOTsmIzk7JiM5OyYjOTtjLTMuOS0xLjEtOC0xLTExLjgsMC4zYy0xLjUsMC41LTIuOSwxLjItNC40LDEuOGMtMiwwLjktNC4xLDEuNy02LjIsMi4yYy0zLjEsMC43LTYuNCwwLjMtOS4zLTEuMWwtMC40LTAuMiYjMTA7JiM5OyYjOTsmIzk7JiM5OyYjOTtjLTAuMSwwLTAuMSwwLTAuMSwwLjFjMS45LDIsNC40LDMuNCw3LDQuMWMxLjgsMC41LDMuNywwLjYsNS41LDAuNGMyLjgtMC40LDUuNS0xLjQsNy44LTNsNC4yLTIuOGMxLjYtMSwzLjUtMS40LDUuMy0xJiMxMDsmIzk7JiM5OyYjOTsmIzk7JiM5O2MxLDAuMSwwLjIsMC42LDAuMSwwLjdjLTIuNSwxLjItNC45LDIuNy03LjEsNC40Yy0xLjUsMS4xLTQuMiwzLjctNC4yLDMuN2wyLDEuN2wyLjItMi40YzIuNy0yLjgsNS44LTUuMiw5LjItNy4xJiMxMDsmIzk7JiM5OyYjOTsmIzk7JiM5O2MwLjMtMC4yLDAuNi0wLjIsMC45LDBjMy40LDEuOSw2LjUsNC4zLDkuMiw3LjFsMi4yLDIuNGwyLTEuN0w2NC4yLDg2Yy0yLjItMS43LTQuNi0zLjItNy4xLTQuNGMtMC4yLTAuMS0wLjktMC42LDAuMS0wLjcmIzEwOyYjOTsmIzk7JiM5OyYjOTsmIzk7YzEuOC0wLjQsMy43LDAsNS4zLDFsNC4yLDIuOGMyLjMsMS42LDUsMi42LDcuOCwzYzEuOCwwLjIsMy43LDAuMSw1LjUtMC40YzIuNi0wLjgsNS4xLTIuMiw3LTQuMWMwLDAtMC4xLTAuMS0wLjItMC4xJiMxMDsmIzk7JiM5OyYjOTsmIzk7JiM5O0w4Ni40LDgzLjIgTTk2LjIsNzQuNWMtMS4zLDEtMi43LDEuNy00LjIsMi4yYy0yLjEsMC42LTQuNCwxLTYuNiwxYy0yLjksMC4xLTUuNywwLjMtOC42LDAuN2MtMC4yLDAtMC4zLDAtMC4yLTAuMSYjMTA7JiM5OyYjOTsmIzk7JiM5OyYjOTtjMi41LTEsNC41LTMsNS42LTUuNGwyLjgtNS43YzAtMC4xLDAtMC4xLDAtMC4yYy0wLjIsMC4xLTMsMi41LTQuMywzLjdMNzYsNzUuM2MtMi4xLDEuOC00LjYsMy4xLTcuMywzLjhoLTAuMWwtMC4xLDAuMSYjMTA7JiM5OyYjOTsmIzk7JiM5OyYjOTtsNS40LDEuM2MyLjMsMC43LDQuNywxLjEsNy4xLDEuM2M2LjEsMC42LDEyLTIuMiwxNS40LTcuMkM5Ni40LDc0LjUsOTYuMyw3NC41LDk2LjIsNzQuNSBNMTA1LDYxLjFjLTEuNCwxLjctMy4xLDMuMi01LDQuNCYjMTA7JiM5OyYjOTsmIzk7JiM5OyYjOTtjLTEuNiwxLjEtMy4zLDItNS4xLDIuOGMtMi4zLDAuOS00LjQsMi4yLTYuMywzLjdsLTAuNCwwLjNjLTAuMSwwLTAuMSwwLTAuMS0wLjFzMy0zLjEsMy45LTkuNGMwLjEtMi4zLDAuNS00LjUsMS02LjcmIzEwOyYjOTsmIzk7JiM5OyYjOTsmIzk7YzAtMC4xLDAtMC4xLDAtMC4yYy0yLjEsMi42LTMuNyw1LjUtNC44LDguNmwtMS44LDUuMWMtMC43LDIuMy0yLDQuNC0zLjcsNi4xbC0wLjIsMC4yVjc2YzAuMiwwLDAuNC0wLjEsMC42LTAuMWw1LjgtMS4yJiMxMDsmIzk7JiM5OyYjOTsmIzk7JiM5O2MzLjItMC41LDYuMi0xLjgsOC44LTMuN2MyLjctMS45LDQuOC00LjUsNi4zLTcuNEMxMDQuNCw2Mi44LDEwNC43LDYyLDEwNSw2MS4xQzEwNS4yLDYxLDEwNS4xLDYxLDEwNSw2MS4xIE0xMDguOCw0Ni4xJiMxMDsmIzk7JiM5OyYjOTsmIzk7JiM5O2MtMC45LDIuNy0yLjUsNS4yLTQuNiw3LjJjLTIuNCwyLjMtNC42LDQuOS02LjYsNy41YzAsMC4xLTAuMiwwLTAuMS0wLjFjMC44LTIuNywxLTUuNiwwLjYtOC41Yy0wLjQtMi40LTEuNC01LTEuNy03LjkmIzEwOyYjOTsmIzk7JiM5OyYjOTsmIzk7bC0wLjEtMC4xYzAsMC4xLTAuMSwwLjItMC4xLDAuM2MtMC42LDEuOS0xLDMuOC0xLjIsNS44Yy0wLjEsMi40LDAuMyw1LjUsMC4xLDcuOWMtMC4yLDIuOC0wLjQsNS43LTEuNyw4LjJjMCwwLjEsMCwwLjEsMCwwLjImIzEwOyYjOTsmIzk7JiM5OyYjOTsmIzk7bDYtMy43YzIuNS0xLjYsNC42LTMuNiw2LjMtNmMyLjItMy4xLDMuMy02LjcsMy4zLTEwLjVjMC0wLjEsMC0wLjMsMC0wLjRDMTA4LjksNDYsMTA4LjgsNDYuMSwxMDguOCw0Ni4xIiBjbGFzcz0ic3QwIi8+JiN4YTsJCQkJPHBhdGggZD0iTTEwMi40LDQ3LjdDMTAyLjUsNDcuNywxMDIuNSw0Ny43LDEwMi40LDQ3LjdDMTAyLjQsNDcuOCwxMDIuNCw0Ny43LDEwMi40LDQ3LjdjMC0wLjgsMC0xLjYtMC4xLTIuNCYjMTA7JiM5OyYjOTsmIzk7JiM5OyYjOTtjLTAuMi0yLjgtMS45LTUuMS0zLjQtNy41Yy0xLTEuNS0xLjktMy4xLTIuNy00LjhjMCwwLTAuMS0wLjEtMC4yLTAuMWMwLDAuMiwwLDEuMSwwLjEsMS42YzAuNSw0LDEuNSw4LDMsMTEuOCYjMTA7JiM5OyYjOTsmIzk7JiM5OyYjOTtjMC45LDIuNCwxLjIsNC45LDEsNy40YzAsMC4yLDAsMC4yLDAuMSwwLjNjMC45LTEuMywyLjctMy4xLDMuOC00LjVzNy4xLTguMiw0LjItMTcuNmMtMC4xLTAuNC0wLjMtMC44LTAuNS0xLjJsLTAuMSwwLjEmIzEwOyYjOTsmIzk7JiM5OyYjOTsmIzk7YzAsNi44LTMuMyw5LjctNC42LDE0LjNDMTAyLjcsNDYuMiwxMDIuNSw0NywxMDIuNCw0Ny43IE0xMDIuNSwzMy43bC0wLjYtMS42bC0wLjQtMC45Yy0xLTEuOC0yLjQtMy40LTQuMS00LjYmIzEwOyYjOTsmIzk7JiM5OyYjOTsmIzk7Yy0xLjQtMS4yLTIuNi0yLjUtMy42LTRjMCwwLTAuMSwwLTAuMiwwaC0wLjFjMC4xLDAuMywxLDMuMywxLjYsNC43YzEsMS45LDIuMiwzLjgsMy42LDUuNGwwLjMsMC40YzEuNywyLjMsMyw0LjgsMy45LDcuNSYjMTA7JiM5OyYjOTsmIzk7JiM5OyYjOTtjMCwwLjEsMC4xLDAuMSwwLjEsMC4xbDEuNy01LjJjMC42LTEuOCwxLjEtMy43LDEuNS01LjZjMC42LTQuNS0wLjgtMTAuMi0zLjQtMTMuNGMwLDAtMC4xLDAuMS0wLjEsMC4ybDAuMSwwLjRsMC4yLDAuNiYjMTA7JiM5OyYjOTsmIzk7JiM5OyYjOTtjMC41LDIuNCwwLjYsNSwwLjEsNy40Yy0wLjQsMS45LTAuNSwzLjktMC41LDUuOWMwLDAuMywwLjIsMi44LDAuMiwyLjlzLTAuMSwwLTAuMiwwIE05NC41LDguNmMwLjgsMC44LDEuNSwxLjcsMS45LDIuOCYjMTA7JiM5OyYjOTsmIzk7JiM5OyYjOTtjMC43LDEuNywwLjksNC4yLDEuNCw2LjFsMC45LDMuM2MwLDAuMS0wLjEsMC4yLTAuMiwwLjFjLTEuNS0xLjgtMy4zLTMuMy01LjQtNC41Yy0xLjQtMC44LTIuNS0xLjktMy41LTMuMWwtMC41LTAuNyYjMTA7JiM5OyYjOTsmIzk7JiM5OyYjOTtjMCwwLTAuMS0wLjEtMC4yLDBjMCwwLjEsMCwwLjIsMCwwLjNjMC41LDIuMiwxLjUsNC4zLDMuMSw2YzEuMywxLjIsMi43LDIuMyw0LDMuNGMxLjcsMS40LDMuMywzLjEsNC44LDQuOGMwLDAsMC4xLDAuMSwwLjEsMCYjMTA7JiM5OyYjOTsmIzk7JiM5OyYjOTt2LTEuNmwwLjEtNC44di0xLjZjMC0xLjYtMC4zLTMuMy0wLjktNC44Yy0xLTIuNS0yLjktNC41LTUuMi01LjdjLTAuMS0wLjEtMC4zLTAuMS0wLjUtMC4yQzk0LjQsOC40LDk0LjQsOC41LDk0LjUsOC42JiMxMDsmIzk7JiM5OyYjOTsmIzk7JiM5OyBNODQuMiwzLjljMS40LDEuMywyLjYsMi44LDMuNyw0LjRjMSwxLjYsMi4xLDMsMy41LDQuM2MwLjksMC45LDMuNiwzLDQuMywzLjZjLTAuMS0wLjgtMS40LTYuNS00LjktOS4zJiMxMDsmIzk7JiM5OyYjOTsmIzk7JiM5O2MtMi0xLjYtNC40LTIuOC02LjktMy40YzAsMC4xLDAsMC4xLDAsMC4yTDg0LjIsMy45IE0yOC4yLDgxLjhjMi4zLTAuMiw0LjctMC42LDYuOS0xLjNsNS40LTEuM2gwLjFjMCwwLDAtMC4xLTAuMS0wLjFoLTAuMSYjMTA7JiM5OyYjOTsmIzk7JiM5OyYjOTtjLTIuNy0wLjctNS4yLTItNy40LTMuOGwtNC43LTQuNUwyNCw2Ny4xdjAuMmMwLjQsMC42LDEuOSwzLjksMi44LDUuN2MxLjEsMi41LDMuMSw0LjQsNS42LDUuNGMwLjEsMC4xLDAsMC4xLTAuMiwwLjEmIzEwOyYjOTsmIzk7JiM5OyYjOTsmIzk7Yy0yLjgtMC40LTUuNy0wLjYtOC42LTAuN2MtMi4yLDAtNC41LTAuNC02LjYtMWMtMS41LTAuNS0yLjktMS4yLTQuMi0yLjJjLTAuMSwwLTAuMSwwLTAuMiwwYzIsMi44LDQuOCw1LDgsNi4yJiMxMDsmIzk7JiM5OyYjOTsmIzk7JiM5O0MyMy4xLDgxLjYsMjUuNiw4MS45LDI4LjIsODEuOCBNMjUuOSw3NS45YzAuMiwwLDAuMywwLjEsMC42LDAuMXYtMC4xbC0wLjItMC4yYy0xLjctMS43LTIuOS0zLjgtMy43LTYuMWwtMS44LTUuMSYjMTA7JiM5OyYjOTsmIzk7JiM5OyYjOTtjLTEuMS0zLjEtMi43LTYtNC44LTguNmMwLDAuMSwwLDAuMSwwLDAuMmMwLjYsMi4yLDAuOSw0LjQsMS4xLDYuN0MxOCw2OSwyMSw3MiwyMSw3Mi4xczAsMC4yLTAuMSwwLjFsLTAuNC0wLjMmIzEwOyYjOTsmIzk7JiM5OyYjOTsmIzk7Yy0xLjktMS41LTQtMi44LTYuMy0zLjdjLTEuOC0wLjgtMy41LTEuNy01LjEtMi44Yy0xLjktMS4yLTMuNi0yLjctNS00LjRINGMwLjMsMC44LDAuNiwxLjYsMSwyLjRjMS41LDIuOSwzLjcsNS41LDYuNCw3LjQmIzEwOyYjOTsmIzk7JiM5OyYjOTsmIzk7YzIuNiwyLDUuNiwzLjMsOC44LDMuN0MyMi4xLDc1LDI0LDc1LjUsMjUuOSw3NS45IE05LjgsNjIuOWw2LDMuN2MwLDAsMC4xLTAuMSwwLjEtMC4yYy0xLjMtMi42LTEuNS01LjQtMS43LTguMiYjMTA7JiM5OyYjOTsmIzk7JiM5OyYjOTtjLTAuMi0yLjUsMC4yLTUuNSwwLjEtNy45Yy0wLjItMi0wLjYtNC0xLjItNS45YzAtMC4xLTAuMS0wLjItMC4xLTAuM2wtMC4xLDAuMWwwLDBjLTAuMiwyLjktMS4zLDUuNS0xLjcsNy45JiMxMDsmIzk7JiM5OyYjOTsmIzk7JiM5O2MtMC40LDIuOC0wLjIsNS43LDAuNiw4LjVjMC4xLDAuMS0wLjEsMC4yLTAuMSwwLjFjLTItMi43LTQuMi01LjItNi42LTcuNWMtMi4xLTItMy43LTQuNC00LjYtNy4xYzAsMC0wLjEtMC4xLTAuMi0wLjEmIzEwOyYjOTsmIzk7JiM5OyYjOTsmIzk7czAsMC4yLDAsMC40YzAsMy43LDEuMSw3LjQsMy4zLDEwLjVDNS4yLDU5LjIsNy4zLDYxLjMsOS44LDYyLjkgTTguNyw1NC4xQzguOCw1NCw4LjgsNTQsOC44LDUzLjhjLTAuMi0yLjUsMC4xLTUuMSwxLjEtNy40JiMxMDsmIzk7JiM5OyYjOTsmIzk7JiM5O2MxLjQtMy44LDIuNC03LjcsMy0xMS44YzAtMC41LDAuMS0xLjQsMC4xLTEuNmMtMC4xLDAtMC4xLDAtMC4xLDAuMWMtMC44LDEuNy0xLjcsMy4zLTIuNyw0LjhjLTEuNiwyLjItMy4yLDQuNi0zLjQsNy40JiMxMDsmIzk7JiM5OyYjOTsmIzk7JiM5O2MtMC4xLDAuOC0wLjEsMS42LDAsMi40YzAsMCwwLDAuMS0wLjEsMC4xYzAsMCwwLDAsMC0wLjFMNiw0NS4zQzQuNiw0MC43LDEuNCwzNy44LDEuNCwzMWwtMC4xLTAuMWMtMC4yLDAuNC0wLjMsMC44LTAuNSwxLjImIzEwOyYjOTsmIzk7JiM5OyYjOTsmIzk7Yy0yLjksOS40LDMsMTYuMiw0LjIsMTcuNlM3LjgsNTIuOCw4LjcsNTQuMSBNNC41LDM1LjRsMS43LDUuMmMwLDAsMC4xLDAsMC4xLTAuMWMwLjktMi43LDIuMy01LjIsMy45LTcuNWwwLjMtMC40JiMxMDsmIzk7JiM5OyYjOTsmIzk7JiM5O2MxLjQtMS43LDIuNi0zLjUsMy42LTUuNGMwLjYtMS40LDEuNS00LjQsMS42LTQuN2gtMC4xYy0wLjEsMC0wLjEsMC0wLjIsMGMtMSwxLjUtMi4yLDIuOC0zLjYsNGMtMS43LDEuMi0zLjIsMi44LTQuMiw0LjcmIzEwOyYjOTsmIzk7JiM5OyYjOTsmIzk7Yy0wLjEsMC4zLTAuMywwLjYtMC40LDAuOWwtMC42LDEuN2MwLDAtMC4xLDAuMi0wLjEsMHMwLjItMi41LDAuMi0yLjljMC0yLTAuMi00LTAuNi01LjljLTAuNS0yLjUtMC40LTUsMC4xLTcuNCYjMTA7JiM5OyYjOTsmIzk7JiM5OyYjOTtjMC0wLjIsMC4xLTAuNCwwLjItMC42YzAtMC4xLDAuMS0wLjMsMC4xLTAuNHMwLTAuMS0wLjEtMC4yYy0yLjYsMy4yLTQuMSw5LTMuNSwxMy40QzMuNCwzMS43LDMuOSwzMy42LDQuNSwzNS40IE04LjEsMjAuOCYjMTA7JiM5OyYjOTsmIzk7JiM5OyYjOTtsMC4xLDQuOGwwLDEuNWgwLjFjMS40LTEuOCwzLTMuNCw0LjctNC45bDQtMy40YzEuNi0xLjcsMi42LTMuOCwzLjEtNmMwLTAuMSwwLTAuMiwwLTAuM0gyMGwtMC41LDAuN2MtMC45LDEuMi0yLjEsMi4zLTMuNCwzLjEmIzEwOyYjOTsmIzk7JiM5OyYjOTsmIzk7Yy0yLjQsMS41LTQsMi42LTUuNCw0LjVjLTAuMSwwLjEtMC4yLDAuMS0wLjEtMC4xbDAuOS0zLjNjMC41LTEuOSwwLjctNC40LDEuNC02LjFjMC40LTEsMS4xLTIsMS45LTIuOGMwLTAuMSwwLTAuMSwwLTAuMiYjMTA7JiM5OyYjOTsmIzk7JiM5OyYjOTtjLTAuMiwwLTAuMywwLjEtMC41LDAuMkMxMS44LDkuOCwxMCwxMS45LDksMTQuM2MtMC42LDEuNS0xLDMuMS0wLjksNC44VjIwLjggTTEzLjQsMTYuMUwxMy40LDE2LjFsNC40LTMuNiYjMTA7JiM5OyYjOTsmIzk7JiM5OyYjOTtjMS4zLTEuMywyLjUtMi43LDMuNS00LjNzMi4zLTMuMSwzLjctNC40bDAuMy0wLjNjMC0wLjEsMC0wLjEsMC0wLjJjLTIuNSwwLjYtNC45LDEuNy02LjksMy40QzE0LjcsOS42LDEzLjUsMTUuMywxMy40LDE2LjEmIzEwOyYjOTsmIzk7JiM5OyYjOTsmIzk7IE01My42LDQ3LjFjMC4zLTAuNC0wLjQtMC43LTAuNiwwUzUzLjMsNDcuNiw1My42LDQ3LjEgTTYxLjIsMjkuNWMtMC4zLTAuMS0xLjQsMS4yLTEuMiwxLjRDNjAuNSwzMC42LDYwLjksMzAuMSw2MS4yLDI5LjUmIzEwOyYjOTsmIzk7JiM5OyYjOTsmIzk7IE02MS40LDI5LjNjMC4yLDAuMSwwLjktMC4zLDAuOC0wLjRzLTEtMC41LTEtMC4zQzYxLjIsMjksNjEuMywyOS4yLDYxLjQsMjkuMyBNNzQuOSw0MS43YzAuNC0wLjEsMC4zLTAuNywwLTAuNyYjMTA7JiM5OyYjOTsmIzk7JiM5OyYjOTtzLTAuNywwLjUtMC42LDAuNVM3NC43LDQxLjgsNzQuOSw0MS43IE03MCwyOC40Yy0wLjMsMC0wLjQsMC4zLTAuMSwwLjVjMC4zLDAuMSwwLjUsMCwwLjctMC4xczAuNC0wLjMsMC40LTAuNiYjMTA7JiM5OyYjOTsmIzk7JiM5OyYjOTtzLTAuNC0wLjctMC4yLTAuOXMwLjUsMC4xLDAuNywwczAuMy0wLjMsMC4zLTAuNVM3MS43LDI2LDcxLjMsMjZzLTAuOCwwLjgtMC44LDAuOGMtMC4xLDAuMi0wLjEsMC41LDAsMC43JiMxMDsmIzk7JiM5OyYjOTsmIzk7JiM5O0M3MC42LDI3LjksNzAuNSwyOC40LDcwLDI4LjQiIGNsYXNzPSJzdDAiLz4mI3hhOwkJCQk8cGF0aCBkPSJNNzYuNiwyOC41YzAsMC4yLDAuNSwxLjUsMC42LDEuOHMwLjIsMS40LDAuNCwxLjNzMC4yLTAuNywwLjEtMWMtMC4xLTAuNy0wLjMtMS41LTAuNS0yLjEmIzEwOyYjOTsmIzk7JiM5OyYjOTsmIzk7Yy0wLjEtMC40LTAuOC0xLjktMS0xLjhzMC4zLDEsMC40LDEuNFM3Ni41LDI4LjMsNzYuNiwyOC41IE03My4xLDExLjVjMC4zLDAuMSwwLjMtMC41LTAuMi0wLjlzLTEuMy0wLjItMS4xLDAmIzEwOyYjOTsmIzk7JiM5OyYjOTsmIzk7QzcyLjIsMTAuOSw3Mi42LDExLjMsNzMuMSwxMS41IE01OC4xLDcuMmMtMC43LTAuNC0wLjEtMS0wLjYtMS40Yy0wLjYtMC4yLTEuMi0wLjEtMS42LDAuM2MtMC41LDAuNiwwLjYsMC40LDAuOSwwLjYmIzEwOyYjOTsmIzk7JiM5OyYjOTsmIzk7czEuMywwLjksMS40LDAuOEM1OC4zLDcuNCw1OC4yLDcuMiw1OC4xLDcuMiBNNjIuMSw1LjJjLTAuOS0wLjQtNC4yLTAuNC00LjEsMC41YzAuMSwwLjksMS45LDAsMi40LDBTNjIuOSw1LjYsNjIuMSw1LjImIzEwOyYjOTsmIzk7JiM5OyYjOTsmIzk7IE01Myw0My44Yy0wLjItMC4xLTAuNSwwLjEtMC42LTAuMXMtMC4zLTAuMS0wLjMsMFM1Miw0NCw1Mi4yLDQ0LjJjMC4yLDAuMiwwLjYsMC4yLDAuOCwwQzUzLjEsNDQuMSw1My4xLDQzLjksNTMsNDMuOCYjMTA7JiM5OyYjOTsmIzk7JiM5OyYjOTsgTTUxLjEsMzcuMWMwLjMsMCwwLjMtMC4yLDAuNC0wLjJzMCwwLjIsMC4zLDAuMnMwLjYtMC43LTAuMy0wLjdDNTAuOCwzNi40LDUwLjksMzcuMSw1MS4xLDM3LjEgTTUyLjMsMzcuOSYjMTA7JiM5OyYjOTsmIzk7JiM5OyYjOTtjLTAuNS0wLjEtMC40LDAuMi0wLjgsMC4yYy0wLjYsMC4xLTAuMS0wLjQtMC4zLTAuNmMtMC4xLTAuMS0wLjQsMC40LTAuNSwwLjdjMCwwLjIsMCwwLjYsMC4yLDAuN2wxLjksMC4yJiMxMDsmIzk7JiM5OyYjOTsmIzk7JiM5O0M1My4yLDM5LjEsNTIuOCwzOCw1Mi4zLDM3LjkgTTQ2LjEsNDQuNGMwLjIsMCwwLjMtMC42LDAuMi0wLjlzLTAuNy0wLjEtMC43LDAuMVM0Niw0NC40LDQ2LjEsNDQuNCBNMzguMSw0NC40JiMxMDsmIzk7JiM5OyYjOTsmIzk7JiM5O2MwLTAuMiwwLTEtMC4yLTEuMnMtMC4yLDAuMS0wLjMsMC4xcy0wLjEtMC40LTAuMi0wLjRzMCwwLjYsMC4yLDFTMzguMSw0NC45LDM4LjEsNDQuNCBNMzcuOSw0Mi42YzAuMi0wLjYsMC4zLTEuMiwwLjMtMS44JiMxMDsmIzk7JiM5OyYjOTsmIzk7JiM5O2MwLTAuNS0wLjMtMC45LTAuNC0wLjlzMCwwLjMsMC4xLDAuOGMwLDAuNS0wLjIsMS0wLjMsMS41QzM3LjYsNDIuMywzNy44LDQyLjgsMzcuOSw0Mi42IiBjbGFzcz0ic3QwIi8+JiN4YTsJCQkJPHBhdGggZD0iTTI3LjcsNjVjMTQuOSwxNC45LDM4LjksMTQuOSw1My44LDBzMTQuOS0zOC45LDAtNTMuOHMtMzguOS0xNC45LTUzLjgsMFMxMi44LDUwLjIsMjcuNyw2NSBNMTguMiwzOC45SDI0JiMxMDsmIzk7JiM5OyYjOTsmIzk7JiM5O2MwLjEsMywwLjYsNS45LDEuNSw4LjdjLTAuMy0wLjEtMC42LTAuMi0wLjktMC40Yy0wLjQtMC4yLTAuNywwLjEtMC44LDAuMWMtMC40LDAtMC45LTAuMy0wLjksMHMwLjQsMC4xLDAuNCwwLjMmIzEwOyYjOTsmIzk7JiM5OyYjOTsmIzk7cy0xLDAuMi0xLjEtMC4ycy0wLjMtMC44LTAuNC0wLjNzLTAuNSwwLjQtMC43LDAuNWMtMC4xLDAuMS0wLjIsMC4zLTAuMiwwLjVzLTAuNSwwLjEtMC41LDAuNHMwLjMsMC40LDAuNCwwLjdzMC40LDAuNSwwLjIsMC42JiMxMDsmIzk7JiM5OyYjOTsmIzk7JiM5O3MtMC4xLTAuMS0wLjMsMHMwLjksMy4xLDEuMSwzcy0wLjMtMS0wLjMtMS40czAuMS0wLjUsMC40LTAuN3MxLjEsMS4yLDEuNCwxcy0wLjEtMC40LDAuMi0wLjVzMS4yLDEuMywxLjUsMC45JiMxMDsmIzk7JiM5OyYjOTsmIzk7JiM5O2MwLjItMC4zLDAuNCwwLjIsMC40LDAuM2MwLjMsMC41LDAuOCwwLjUsMS4xLDEuMXMxLDEuNywxLjUsMS43czAuMi0wLjUsMC40LTAuNXMwLjQsMC43LDAuNywxLjFjMC4yLDAuMywwLjUsMC41LDAuOSwwLjYmIzEwOyYjOTsmIzk7JiM5OyYjOTsmIzk7YzAuNywwLjksMS41LDEuOCwyLjMsMi43bC00LjEsNC4xQzIxLjksNTYuOCwxOC4zLDQ4LjEsMTguMiwzOC45IE01MS4zLDMwLjZsLTAuNCwwLjJjLTAuNiwwLjMtMS4xLDAuNi0xLjUsMWwtNC4xLTQuMSYjMTA7JiM5OyYjOTsmIzk7JiM5OyYjOTtjMi40LTIuMSw1LjQtMy40LDguNS0zLjVWMzBjLTAuNywwLjEtMS40LDAuMi0yLjEsMC41YzAuMi0wLjQsMC42LTAuOCwwLjYtMC44UzUxLjYsMzAuMSw1MS4zLDMwLjYgTTQ4LjIsNDAuMSYjMTA7JiM5OyYjOTsmIzk7JiM5OyYjOTtDNDguMiw0MC4xLDQ4LjIsNDAuMiw0OC4yLDQwLjFjMCwwLjEsMCwwLjIsMCwwLjJjMC0wLjItMC4xLTAuMy0wLjItMC41Yy0wLjEtMC4xLTAuMi0wLjItMC4zLTAuMnMtMC4yLDAtMC4zLDBoLTAuMkw0NywzOS43JiMxMDsmIzk7JiM5OyYjOTsmIzk7JiM5O2gtMS40Yy0wLjIsMC0wLjMsMC0wLjMtMC4xYy0wLjEtMC40LDAuNS0wLjEsMC45LTEuM2MwLjEtMC4xLDAuMS0wLjMsMC4yLTAuNGwwLjEtMC4ybDAuMS0wLjFsMC4xLTAuMWMwLjItMC4yLDAuNC0wLjIsMC42LTAuMiYjMTA7JiM5OyYjOTsmIzk7JiM5OyYjOTtoMC4ybDAuMiwwLjJsMC4zLDAuNmMwLjEsMC4xLDAuMiwwLjEsMC4yLDAuMmMwLjIsMC4xLDAuMywwLjIsMC40LDAuM2wwLjEsMC4xdjAuMWMwLjEsMC4xLDAuMSwwLjEsMC4yLDAuMUg0OSYjMTA7JiM5OyYjOTsmIzk7JiM5OyYjOTtjMC4xLDAsMC4xLDAsMC4yLDBoMC4xYzAuMi0wLjEsMC4yLDAsMC4zLDBWMzljMCwwLjEsMCwwLjEtMC4xLDAuMmMwLDAuMS0wLjEsMC4xLTAuMSwwLjJjLTAuMSwwLjEtMC4yLDAuMi0wLjMsMC4yJiMxMDsmIzk7JiM5OyYjOTsmIzk7JiM5O2MtMC4yLDAtMC40LTAuMS0wLjUtMC4xcy0wLjIsMC0wLjIsMC4xdjAuNSBNMzcuNCw0OS43Yy0wLjMtMC41LTAuNC0xLjItMC40LTEuOHMtMC4yLTEuMi0wLjUtMS43Yy0wLjEtMC40LTAuMi0wLjgtMC4yLTEuMiYjMTA7JiM5OyYjOTsmIzk7JiM5OyYjOTtjMC0wLjctMC42LTAuNS0wLjYtMC43czAuNSwwLDAuNS0wLjJzLTAuNi0xLTEuMS0xLjJzLTAuMy0wLjUtMC4zLTAuOHMwLTAuNi0wLjItMC44Yy0wLjEtMC40LDAtMS4xLDAuNS0xLjEmIzEwOyYjOTsmIzk7JiM5OyYjOTsmIzk7YzAuMiwwLDAuNSwwLjIsMC44LDBzMC4xLTAuOCwwLjEtMS4zaDIuOGMwLDAuNCwwLjEsMC45LDAuMSwxLjNjLTAuMiwwLjEtMC4zLDAuMy0wLjIsMC40YzAuMSwwLjEsMC4yLDAuMiwwLjMsMC4xJiMxMDsmIzk7JiM5OyYjOTsmIzk7JiM5O2MwLjUsMi45LDEuOCw1LjYsMy44LDcuOGwtNC4xLDQuMWMtMC4zLTAuMy0wLjYtMC43LTAuOS0xLjFjMC0wLjEsMC0wLjIsMC0wLjNjMC0wLjctMC41LTEuMS0wLjctMS43IE0zMy41LDQyLjcmIzEwOyYjOTsmIzk7JiM5OyYjOTsmIzk7Yy0wLjMtMS4yLTAuNC0yLjUtMC41LTMuOGgyLjRjLTAuMiwwLjMtMC43LDAuNi0wLjgsMC45cy0wLjcsMS4zLTAuMywxLjdDMzUuMiw0Mi41LDM0LjEsNDIuOSwzMy41LDQyLjcgTTM0LDU3LjVMMzMuNSw1OCYjMTA7JiM5OyYjOTsmIzk7JiM5OyYjOTtjLTAuMi0wLjItMC41LTAuNS0wLjctMC43QzMzLjIsNTcuMSwzMy42LDU3LjIsMzQsNTcuNSBNNDAuMiwzMS44Yy0wLjEsMC0wLjEsMC4xLTAuMiwwLjFjLTAuMywwLjMtMS4xLDAuMi0xLDAuNSYjMTA7JiM5OyYjOTsmIzk7JiM5OyYjOTtzMi4yLTAuNywyLjItMC41cy0wLjksMC41LTEuNSwwLjhzLTAuOCwwLjgtMS44LDAuOGMtMC41LDAtMC43LDAuNC0wLjksMC43Yy0wLjMsMC40LTAuNSwwLjgtMC43LDEuMmMwLDAuNi0wLjEsMS4yLTAuNCwxLjhIMzMmIzEwOyYjOTsmIzk7JiM5OyYjOTsmIzk7YzAuMi01LjEsMi4yLTEwLDUuNy0xMy44bDQuMSw0LjFDNDEuOCwyOC45LDQwLjksMzAuMyw0MC4yLDMxLjggTTQ0LDI4LjhsMy42LDMuNmMtMC4xLDAtMC4yLDAtMC40LDBjLTAuNCwwLTAuNC0wLjMtMC43LTAuMyYjMTA7JiM5OyYjOTsmIzk7JiM5OyYjOTtjLTAuNiwwLjEtMC43LDAuMy0wLjgsMC4yYy0wLjQtMC40LTAuOS0wLjctMS41LTFjLTAuNy0wLjItMS40LTAuMi0yLDAuMWMtMC4xLDAtMC4xLDAuMS0wLjIsMC4xQzQyLjcsMzAuNiw0My40LDI5LjcsNDQsMjguOCYjMTA7JiM5OyYjOTsmIzk7JiM5OyYjOTsgTTM5LDM2LjFjMCwwLjQtMC4xLDAuOC0wLjEsMS4yaC0yLjFjLTAuMS0wLjMsMC0wLjYsMC4yLTAuOWMwLjItMC40LDAuNy0wLjYsMS4yLTAuNUMzOC40LDM1LjksMzguNywzNiwzOSwzNi4xIE00MC44LDQwLjgmIzEwOyYjOTsmIzk7JiM5OyYjOTsmIzk7bDAuMiwwLjNjMC4yLDAuMiwwLjQsMC40LDAuNiwwLjNzMC43LDAsMC44LDBjMC4zLDAuMSwwLjUsMC4zLDAuNywwLjVjMC4yLDAuMywwLjYsMC4xLDAuOSwwLjNzMC42LDAuNCwwLjIsMC42JiMxMDsmIzk7JiM5OyYjOTsmIzk7JiM5O3MwLjQsMC42LDAuNSwwLjZzMC4yLTAuMiwwLjItMC41YzAtMC4xLDAuMi0wLjUsMC41LTAuNHMxLjIsMS4yLDEuNSwwLjhzMC4xLTAuOSwwLjItMS4xYzAtMC4xLDAuMS0wLjIsMC4yLTAuMiYjMTA7JiM5OyYjOTsmIzk7JiM5OyYjOTtjMC4zLDAuNSwwLjUsMC45LDAuOSwxLjNsLTQuMSw0LjFDNDIuNCw0NS42LDQxLjIsNDMuMyw0MC44LDQwLjggTTQ0LDI2LjVsLTQtNC4xYzMuOC0zLjUsOC43LTUuNSwxMy44LTUuN3Y1LjgmIzEwOyYjOTsmIzk7JiM5OyYjOTsmIzk7QzUwLjIsMjIuNiw0Ni44LDI0LDQ0LDI2LjUgTTM4LjgsMjEuMmwtNC4xLTQuMWM1LjItNC45LDEyLTcuNywxOS4xLTcuOVYxNUM0OC4yLDE1LjIsNDIuOCwxNy40LDM4LjgsMjEuMiBNMzcuNiwyMi4zJiMxMDsmIzk7JiM5OyYjOTsmIzk7JiM5O2MtMy44LDQuMS02LDkuNC02LjIsMTVoLTUuOGMwLjItNy4xLDMtMTMuOSw3LjktMTkuMUwzNy42LDIyLjN6IE0zMS40LDM4LjljMCwxLjEsMC4xLDIuMSwwLjMsMy4yYy0wLjEsMC0wLjEtMC4zLTAuNC0wLjImIzEwOyYjOTsmIzk7JiM5OyYjOTsmIzk7cy0xLjQsMi0xLjksMi44Yy0wLjQsMC43LDAuMiwyLjItMC40LDIuN2MtMC42LDAuMi0xLjIsMC4zLTEuOCwwLjNoLTAuMWMtMS0yLjgtMS41LTUuNy0xLjYtOC42TDMxLjQsMzguOXogTTUzLjcsNzQuNSYjMTA7JiM5OyYjOTsmIzk7JiM5OyYjOTtjLTkuMS0wLjItMTcuOC0zLjgtMjQuMy0xMC4xbDQuMS00LjFjNS41LDUuMiwxMi43LDguMiwyMC4yLDguNFY3NC41eiBNNTMuNyw2Ny4xYy03LjEtMC4yLTEzLjktMy0xOS4xLTcuOWwwLjctMC43JiMxMDsmIzk7JiM5OyYjOTsmIzk7JiM5O2MwLjEsMC4xLDAuMywwLjIsMC41LDAuM2MwLjQsMC4yLDAuOSwwLjMsMS40LDAuMmMwLjQtMC4xLDEuMi0wLjgsMS43LTAuOHMxLjMsMC4yLDEuOC0wLjFzLTAuMy0xLjMtMC42LTEuOCYjMTA7JiM5OyYjOTsmIzk7JiM5OyYjOTtDNDAsNTYuMiw0MCw1Ni4xLDM5LjksNTZjMy45LDMuMyw4LjksNS4yLDE0LDUuM0w1My43LDY3LjF6IE01My43LDU5LjZjLTUuMS0wLjItMTAtMi4yLTEzLjgtNS43bDQuMS00LjEmIzEwOyYjOTsmIzk7JiM5OyYjOTsmIzk7YzEuOSwxLjcsNC4yLDMsNi44LDMuNmMtMC45LDAuNC0xLjMsMS0xLjIsMS41UzQ5LDU1LjcsNDksNTYuM3MwLjgsMSwwLjksMS42YzAuMSwwLjMsMC44LDAuOCwxLjQsMS4yYzAuOCwwLjIsMS42LDAuMywyLjMsMC4yJiMxMDsmIzk7JiM5OyYjOTsmIzk7JiM5O0w1My43LDU5LjZ6IE01My41LDUxLjZjLTAuMy0wLjItMC41LDAuMi0wLjksMC40Yy0yLjgtMC40LTUuMy0xLjYtNy40LTMuNGw0LjEtNC4xYzEuMywxLDIuOCwxLjcsNC40LDEuOCYjMTA7JiM5OyYjOTsmIzk7JiM5OyYjOTtjMCwwLjIsMC4yLDAuNCwwLjIsMC44cy0wLjMsMC42LTAuMiwwLjhzMSwwLDEuMS0wLjNzLTAuMy0wLjUtMC40LTAuOGMtMC4xLTAuMi0wLjEtMC4zLTAuMi0wLjVoMC4zYzAuMywwLDAuNiwwLDAuOS0wLjEmIzEwOyYjOTsmIzk7JiM5OyYjOTsmIzk7YzAuMSwwLDAuMi0wLjEsMC4yLTAuMmMwLTAuMSwwLjEtMC4yLDAuMS0wLjNzMC4xLTAuMSwwLjEtMC4ybDAsMGwwLjEsMC4xYzAuMSwwLjIsMC4zLDAuOCwwLjUsMC43czAuMy0xLDAuMi0xLjImIzEwOyYjOTsmIzk7JiM5OyYjOTsmIzk7Yy0wLjItMC4zLTAuMi0wLjYsMC0wLjljMC0wLjEsMC4xLTAuNywwLjMtMC42czAsMC42LDAsMC44YzAsMC4zLDAuMiwwLjcsMC41LDAuNWMwLjItMC4xLDAuNC0wLjQsMC42LTAuM3MtMC41LDAuMy0wLjYsMC41JiMxMDsmIzk7JiM5OyYjOTsmIzk7JiM5O3MwLjMsMC4zLDAuMiwwLjRzLTAuMiwwLTAuMywwLjFzMC4yLDAuNywwLDAuOHMtMC45LDAuMy0xLjEsMC40cy0wLjQtMC4xLTAuMy0wLjJzMC0wLjUtMC4yLTAuNXMtMC4yLDAuMS0wLjIsMC4zJiMxMDsmIzk7JiM5OyYjOTsmIzk7JiM5O3MwLjIsMC41LDAuMiwwLjZzLTAuMywwLjItMC41LDAuM2MtMC4yLDAuMy0wLjUsMC42LTAuOCwwLjhzLTAuOSwwLjItMC45LDAuNHMwLjMsMC4yLDAuNCwwLjNjMC4yLDAuMywwLjMsMC43LTAuMSwwLjkmIzEwOyYjOTsmIzk7JiM5OyYjOTsmIzk7cy0wLjktMC4zLTEuMS0wLjJzLTAuMywwLjYtMC40LDEuMnMxLjEsMC44LDEuNywwLjVjMC40LTAuMiwwLjMtMC44LDAuNy0xczAuMy0wLjYsMC43LTAuNXMwLjMtMC4zLDAuNy0wLjNzMC40LDAuMywwLjksMC40JiMxMDsmIzk7JiM5OyYjOTsmIzk7JiM5O2MwLjgsMC4yLDAuOCwwLjgsMC45LDAuNXMwLjItMC41LTAuNC0wLjdzLTAuOS0wLjktMC40LTAuN2MwLjYsMC4zLDEuMSwwLjMsMS4yLDAuNnMwLjcsMC4yLDAuOCwwLjVjMC4xLDAuNSwwLjUsMCwwLjItMC4zJiMxMDsmIzk7JiM5OyYjOTsmIzk7JiM5O3MtMC4yLTAuNCwwLTAuNnMwLjMsMC4xLDAuNi0wLjNzLTAuMS0wLjMtMC4yLTAuNXMwLTEuMywwLjQtMS4xczAuOC0wLjEsMC42LTAuMnMwLjEtMC43LDAuMi0wLjdzMCwwLjQsMC4xLDAuNSYjMTA7JiM5OyYjOTsmIzk7JiM5OyYjOTtzMS4xLTAuMywxLjIsMC4ycy0wLjcsMC44LTAuOSwwLjhjLTAuNCwwLTAuNywwLjQtMSwwLjhzLTAuNiwwLjUtMC40LDAuOXMwLjYsMC4zLDEsMC4xczAuNy0wLjUsMC45LTAuNmMwLjQtMC4yLDAuNywxLDAuNSwxLjImIzEwOyYjOTsmIzk7JiM5OyYjOTsmIzk7cy0wLjYsMC4zLTAuOCwwLjVjLTAuNiwwLjMtMS4yLDAuNi0xLjksMC42Yy0wLjQsMC4xLTAuNCwwLjItMC41LDAuNlM1Ny4yLDUyLDU2LjgsNTJzMC4zLTAuOS0wLjMtMC44cy0xLjIsMC4yLTEuOCwwLjMmIzEwOyYjOTsmIzk7JiM5OyYjOTsmIzk7QzU0LjYsNTEuNSw1NCw1Miw1My41LDUxLjYgTTU4LjgsNjAuOWMwLjUsMC4yLDEsMC42LDEuMywxYzAuMywwLjUsMC40LDAuNywwLjIsMS4yQzU5LjgsNjQsNjAsNjQuNiw2MSw2NC45JiMxMDsmIzk7JiM5OyYjOTsmIzk7JiM5O2MwLjYsMC4yLDAuOCwwLjgsMS4yLDEuMmMtMi4yLDAuNi00LjUsMC45LTYuOCwxdi01LjhDNTYuNSw2MS4yLDU3LjcsNjEuMSw1OC44LDYwLjkgTTU1LjQsNTkuN1Y1OWMxLjMtMC4yLDEsMC42LDEuOSwwLjMmIzEwOyYjOTsmIzk7JiM5OyYjOTsmIzk7YzAuMy0wLjEsMC42LDAsMC44LDAuMkM1Ny4yLDU5LjUsNTYuMyw1OS42LDU1LjQsNTkuNyBNNTUuNCw3NC42di01LjljMy0wLjEsNi0wLjYsOC45LTEuNmMwLjEsMC4xLDAuMiwwLjEsMC4zLDAuMSYjMTA7JiM5OyYjOTsmIzk7JiM5OyYjOTtjMC40LDAsMC44LTAuMiwxLjEtMC40YzEtMC40LDEuOS0wLjksMi43LTEuNWMyLjYtMS4zLDUuMS0zLjEsNy4yLTUuMWw0LjEsNC4xQzczLjIsNzAuNyw2NC41LDc0LjMsNTUuNCw3NC42IE03MS42LDIyLjMmIzEwOyYjOTsmIzk7JiM5OyYjOTsmIzk7bDEuNC0xLjRjMC40LDAuNCwwLjgsMC43LDEuNCwwLjhjMC41LDAuMSwwLjcsMC4zLDAuOCwwLjhzMC42LDAuNywxLjEsMC44czAuOCwwLjcsMS4yLDAuN3MxLjcsMS44LDIuMiwyLjQmIzEwOyYjOTsmIzk7JiM5OyYjOTsmIzk7YzAuMywwLjMsMC43LDAuOCwxLDAuNHMwLjMtMC4zLDAuNS0wLjRjMS41LDMuNCwyLjQsNy4yLDIuNSwxMC45aC01LjhjMC0xLjMtMC4yLTIuNi0wLjUtMy45YzAuMi0wLjQsMC4zLTAuOCwwLjMtMS4zJiMxMDsmIzk7JiM5OyYjOTsmIzk7JiM5O2MwLTAuNC0wLjQtMC42LTAuNy0wLjNjLTAuMi0wLjgtMC41LTEuNS0wLjgtMi4yYy0wLjEtMC40LTAuMi0wLjktMC4zLTEuM2MwLTAuMS0wLjItMC4yLTAuNC0wLjRjLTAuMi0wLjQtMC4zLTAuNy0wLjUtMSYjMTA7JiM5OyYjOTsmIzk7JiM5OyYjOTtjMC4zLTAuMiwwLjQtMC43LDAtMC42Yy0wLjYsMC4xLTAuMi0wLjMtMC40LTAuNXMtMC4yLDAtMC4zLDAuMWMtMC44LTEuMi0xLjYtMi4zLTIuNi0zLjRDNzEuNywyMi41LDcxLjcsMjIuNSw3MS42LDIyLjMmIzEwOyYjOTsmIzk7JiM5OyYjOTsmIzk7QzcxLjUsMjIuNCw3MS41LDIyLjMsNzEuNiwyMi4zIE03NS4xLDU2LjJjLTAuMi0wLjQtMC4zLTAuOS0wLjUtMS4zYy0wLjEtMC40LTAuOS0wLjQtMC45LTAuMmMwLDAuNCwwLDAuOC0wLjEsMS4yVjU2bC0yLjEtMi4xJiMxMDsmIzk7JiM5OyYjOTsmIzk7JiM5O2MzLjgtNC4xLDYtOS40LDYuMi0xNWg1LjhjLTAuMiw3LjEtMywxMy45LTcuOSwxOWwtMC4zLTAuM0M3NS40LDU3LjIsNzUuMyw1Ni43LDc1LjEsNTYuMiBNNzAuMyw2MC4yYzAuMy0wLjUsMC45LTEuNCwxLjItMS45JiMxMDsmIzk7JiM5OyYjOTsmIzk7JiM5O3MtMC44LTEuMi0xLjQtMS40cy0wLjYtMC41LTAuNi0xYzAuMy0wLjIsMC42LTAuNSwwLjktMC44bDQuMSw0LjFjLTEuNCwxLjMtMi44LDIuNC00LjQsMy40Yy0wLjEtMC4yLDAuNi0wLjksMC44LTEuMiYjMTA7JiM5OyYjOTsmIzk7JiM5OyYjOTtTNzAuMSw2MC43LDcwLjMsNjAuMiBNNzIuOCwzNi4zYy0wLjUtMC43LDAuMi0wLjgsMC45LTEuMWMwLjQtMC4yLDAuOSwwLjEsMC45LTAuMXMwLjItMC42LDAuNC0wLjdjMC4yLTAuMSwwLjUtMC4zLDAuNi0wLjUmIzEwOyYjOTsmIzk7JiM5OyYjOTsmIzk7YzAsMC4yLDAuMSwwLjQsMC4xLDAuNmMtMC4yLDAuNC0wLjMsMC43LTAuMywxLjFjMCwwLjMsMCwwLjcsMC4zLDBjMC0wLjEsMC4xLTAuMSwwLjEtMC4yYzAuMiwwLjcsMC4yLDEuMywwLjIsMS45aC00LjMmIzEwOyYjOTsmIzk7JiM5OyYjOTsmIzk7YzAsMCwwLDAsMC0wLjFDNzIsMzYuNyw3My4xLDM2LjgsNzIuOCwzNi4zIE03My42LDI4LjFjMCwwLDAsMC4xLTAuMSwwLjFjLTAuMSwwLjEtMC42LTAuNy0wLjYtMC4xczAuMiwwLjgsMC42LDAuOSYjMTA7JiM5OyYjOTsmIzk7JiM5OyYjOTtzMC4yLDAuMywwLjUsMC40YzAuMSwwLDAuMywwLjEsMC40LDAuMmMwLjUsMS4xLDAuOCwyLjIsMS4xLDMuNGMtMC4yLDAuMS0wLjMsMC4yLTAuNCwwLjNjLTAuMiwwLjItMC4xLDAuNi0wLjMsMC45JiMxMDsmIzk7JiM5OyYjOTsmIzk7JiM5O2MtMC4zLDAuNS0wLjQsMC44LTEuMiwwLjZjLTAuNS0wLjItMC4xLTAuOCwwLTEuM3MwLjMtMC40LDAuMy0wLjdzLTEtMS40LTEuNS0xYy0wLjUsMC40LTAuNCwwLjgtMC44LDEuMiYjMTA7JiM5OyYjOTsmIzk7JiM5OyYjOTtjLTAuMiwwLjItMC40LDAuMi0wLjcsMHMtMC40LTAuNC0wLjMtMC42cy0wLjctMS4xLTEtMS41Yy0wLjQtMC41LTEtMC44LTEuNi0wLjhjLTAuNS0wLjktMS4yLTEuOC0xLjktMi42bDQuMS00LjEmIzEwOyYjOTsmIzk7JiM5OyYjOTsmIzk7QzcxLjYsMjQuOSw3Mi43LDI2LjQsNzMuNiwyOC4xIE02Ni43LDMwLjlsLTAuMiwwLjNjLTAuMSwwLjItMC42LTAuMi0wLjctMC4xczAuNywxLjEtMC4xLDAuOHMtMC4zLTAuMy0wLjMtMC42JiMxMDsmIzk7JiM5OyYjOTsmIzk7JiM5O3MtMC43LTAuNS0wLjMtMC43czAtMC41LDAuNC0wLjZzMC4zLTAuNS0wLjItMC42cy0wLjQsMS4xLTAuNywwLjljLTAuMy0wLjEtMC42LTAuMS0wLjktMC4xbDEuNC0xLjRjMC4yLDAuMSwwLjMsMC4xLDAuNSwwLjEmIzEwOyYjOTsmIzk7JiM5OyYjOTsmIzk7QzY1LjgsMjkuNyw2Ni4zLDMwLjMsNjYuNywzMC45IE02NS4xLDUxLjJjMC42LDAuMSwxLjMsMC4yLDEuOSwwLjRjMC40LDAuMiwwLjcsMC42LDEsMC4xYzAuNi0wLjksMS0xLjksMS4yLTMmIzEwOyYjOTsmIzk7JiM5OyYjOTsmIzk7YzAuMi0xLjUtMC4xLTItMC4zLTJzLTAuNiwwLjQtMSwwLjRjLTAuMiwwLTAuMiwwLjQtMC4yLDAuN3MtMC40LDAuNi0wLjUsMC40cy0wLjMtMC4xLTAuMiwwLjFzLTAuOCwwLjEtMS4yLTAuMSYjMTA7JiM5OyYjOTsmIzk7JiM5OyYjOTtjLTAuNi0wLjMsMC43LTAuMywxLjMtMC44YzAuNS0wLjQsMS0wLjksMS41LTEuNGMwLjMtMC41LDAuMy0xLjEsMC44LTEuNXMxLjMtMC4zLDEuNC0wLjlzMC4yLTAuNSwwLjUtMC40czMuMS0wLjEsMy4xLTEmIzEwOyYjOTsmIzk7JiM5OyYjOTsmIzk7YzAtMC40LTAuNi0wLjktMS4yLTFjLTAuNCwwLTAuNS0wLjgtMC43LTEuMnMtMC40LTAuOC0wLjctMS4ySDc2Yy0wLjIsNS4xLTIuMiwxMC01LjcsMTMuOGwtMC4xLTAuMXYtMC40JiMxMDsmIzk7JiM5OyYjOTsmIzk7JiM5O2MwLjEtMC44LTAuNS0yLjEtMC43LTEuOXMwLDAuMi0wLjYsMS4xYy0wLjIsMC4zLTAuNSwwLjgtMC45LDAuOHMtMC40LTAuMi0xLTAuMWMtMC41LDAuMS0xLjEsMC4xLTEuNiwwJiMxMDsmIzk7JiM5OyYjOTsmIzk7JiM5O2MtMC45LTAuMy0xLjgtMC43LTIuNy0xLjNjMC4xLTAuMSwwLjQsMC4xLDAuNC0wLjJTNjQuNyw1MS4xLDY1LjEsNTEuMiBNODAuOCw2My4zbC00LjEtNC4xYzUuMi01LjUsOC4yLTEyLjcsOC40LTIwLjJIOTEmIzEwOyYjOTsmIzk7JiM5OyYjOTsmIzk7QzkwLjgsNDguMSw4Ny4yLDU2LjcsODAuOCw2My4zIE05MSwzNy4zaC01LjljLTAuMS00LjMtMS4xLTguNS0zLTEyLjRsMC4xLTAuMWMwLjQtMC40LTEuOS0zLjQtMi4zLTMuN3MtMC44LTAuOC0xLjMtMS4zJiMxMDsmIzk7JiM5OyYjOTsmIzk7JiM5O2MtMC44LTAuOC0xLjYtMS43LTIuMi0yLjZsNC4zLTQuM0M4Ny4yLDE5LjUsOTAuOCwyOC4yLDkxLDM3LjMgTTU1LjQsMS43YzkuMSwwLjIsMTcuOCwzLjgsMjQuNCwxMC4xbC00LDQmIzEwOyYjOTsmIzk7JiM5OyYjOTsmIzk7Yy0wLjItMC4xLTAuNC0wLjItMC4zLTAuNGMwLjItMC4zLTAuMy0wLjMtMC40LTEuMWMtMC4yLTAuOC0wLjgtMS41LTEuNS0xLjljLTAuNS0wLjMtMC44LTAuNy0xLjMtMC45cy0xLjUtMC44LTItMC42JiMxMDsmIzk7JiM5OyYjOTsmIzk7JiM5O2MtMC4zLDAuMS0wLjcsMC4yLTEsMC4yYy00LjMtMi4zLTktMy41LTEzLjgtMy42TDU1LjQsMS43eiBNNTUuNCw5LjJjNC4zLDAuMSw4LjQsMS4yLDEyLjMsMy4xYzAuMSwwLjYsMC40LDEuMywwLjgsMS44JiMxMDsmIzk7JiM5OyYjOTsmIzk7JiM5O2MwLjIsMC41LDAuNSwwLjksMC44LDEuNGMwLjMsMC4zLDAuMSwwLjksMC4yLDEuNGMwLDAuMiwwLjIsMC40LDAuMywwLjZjMCwwLjMsMCwwLjUsMCwwLjhjMCwwLjEsMC40LDAuMSwwLjctMC4xJiMxMDsmIzk7JiM5OyYjOTsmIzk7JiM5O3MwLjUtMC42LDAuOS0wLjVzMC45LDAuOSwxLjIsMS40TDcwLjcsMjFjLTAuMi0wLjQtMC40LTAuOS0wLjMtMC45czAuMywwLjEsMC40LDAuMWMwLjQsMC0wLjMtMC4zLTAuMy0wLjQmIzEwOyYjOTsmIzk7JiM5OyYjOTsmIzk7Yy0wLjMtMC4zLTAuMy0wLjctMC43LTFzLTEtMC4xLTEuMi0wLjVjLTAuNC0wLjctMC45LTEuMy0xLjYtMS44Yy0wLjEsMCwwLjgsMS4xLDAuNSwxLjNzLTEuNC0wLjctMS41LTAuNXMxLjIsMC43LDEuNiwxLjEmIzEwOyYjOTsmIzk7JiM5OyYjOTsmIzk7YzAuMiwwLjIsMC42LDAuOCwxLDEuM2MtMy44LTIuOS04LjQtNC41LTEzLjItNC43TDU1LjQsOS4yeiBNNTUuNCwxNi42YzUuMSwwLjIsMTAsMi4yLDEzLjgsNS43bC00LjEsNC4xJiMxMDsmIzk7JiM5OyYjOTsmIzk7JiM5O2MtMi43LTIuNC02LjEtMy44LTkuNy00TDU1LjQsMTYuNnogTTU1LjQsMjQuMWMzLjIsMC4yLDYuMiwxLjQsOC41LDMuNWwtMC4yLDAuMmwtMC4yLTAuMWMtMC41LTAuMi0xLjUsMC44LTEuMywwLjkmIzEwOyYjOTsmIzk7JiM5OyYjOTsmIzk7czAuNi0wLjQsMC44LTAuM2gwLjFsLTEuNywxLjhjLTAuNSwwLjItMSwwLjYtMSwwLjljMCwwLDAsMCwwLDAuMWwtMC42LDAuNmwtMC4zLTAuM2MtMC41LTAuNC0xLTAuNy0xLjYtMC45JiMxMDsmIzk7JiM5OyYjOTsmIzk7JiM5O2MwLjMtMC4yLDAuNC0wLjUsMC41LTAuOWMwLTAuNi0wLjItMC40LTAuNS0wLjFzLTAuNiwwLjQtMC44LDAuN2MtMC41LTAuMi0xLjEtMC4zLTEuNi0wLjN2LTUuOEg1NS40eiBNNTQuNywzMS41JiMxMDsmIzk7JiM5OyYjOTsmIzk7JiM5O2MwLjEsMC4yLDAsMC40LTAuMSwwLjVsMCwwYy0wLjIsMC4yLTAuOC0wLjUtMC45LDAuMWMtMC4yLDAuNiwwLjQsMC4zLDAuNCwwLjRjMC4zLDAuNCwwLjcsMC42LDEuMiwwLjdjMC40LDAsMSwwLDEsMC40JiMxMDsmIzk7JiM5OyYjOTsmIzk7JiM5O2MwLDAuMiwwLjUsMC4yLDAuNiwwLjRjMCwwLjMsMC4zLDAuOCwwLjUsMC43czAuNSwwLjEsMC42LDAuM3MwLDAuMy0wLjEsMC41Yy0wLjMsMC4zLDAuMywwLjIsMC40LDAuOHMtMC41LDAuMi0wLjYsMC42JiMxMDsmIzk7JiM5OyYjOTsmIzk7JiM5O2MtMC4yLDAuMy0wLjQsMC41LTAuNiwwLjhjLTAuMSwwLjEsMC4xLDAuMywwLjIsMC4yczAuMy0wLjQsMC42LTAuNHMwLjYsMS4xLDAuOSwxLjJzMC4yLDAuNSwwLjMsMC42cy0wLjUsMC0wLjQsMC4yJiMxMDsmIzk7JiM5OyYjOTsmIzk7JiM5O3MwLjcsMC4zLDAuNywwLjZjLTAuMSwwLjMtMC4zLDAuNi0wLjcsMC42Yy0wLjMsMC0wLjgtMC43LTAuOC0wLjVzMC4yLDAuOCwwLjUsMC44czEtMC4zLDAuNywwLjFzLTAuMiwxLTAuNCwxcy0wLjMsMC0wLjEsMC4zJiMxMDsmIzk7JiM5OyYjOTsmIzk7JiM5O2MwLjEsMC4zLDAsMC42LTAuMiwwLjljLTAuMiwwLjItMC43LDAtMC43LTAuMXMwLjYtMC4xLDAuNi0wLjRzLTAuMy0wLjQtMC45LTAuMmMtMC4zLDAuMS0wLjQtMC4xLTAuNi0wLjFTNTYsNDMuMiw1Niw0My4zJiMxMDsmIzk7JiM5OyYjOTsmIzk7JiM5O2MwLDAuMSwwLDAuMywwLDAuNWMwLDAuNC0wLjEsMC43LTAuMywxYy0wLjQsMC4xLTAuNywwLjEtMS4xLDAuMWMtMS42LDAtMy4yLTAuNy00LjQtMS43YzAuMi0wLjEsMC41LTAuMiwwLjgtMC4yJiMxMDsmIzk7JiM5OyYjOTsmIzk7JiM5O2MwLjMsMC4xLDAuNC0wLjEsMC42LTAuMnMwLjcsMC4yLDEsMHMxLTEuNSwwLjktMS44czAuNy0wLjgsMC42LTAuOXMtMC4yLDAuMS0wLjIsMHMwLjItMC4xLDAtMC41cy0wLjUtMC4yLTAuNy0wLjImIzEwOyYjOTsmIzk7JiM5OyYjOTsmIzk7Yy0wLjMtMC4yLTAuOC0wLjMtMC45LTAuMnMtMC40LTAuMi0wLjUtMC4xYy0wLjEsMC0wLjMsMC4xLTAuMywwLjNjLTAuMSwwLjIsMC4xLDAuNCwwLjEsMC42Yy0wLjEsMC40LTAuNywwLjctMC43LDEmIzEwOyYjOTsmIzk7JiM5OyYjOTsmIzk7cy0wLjMsMC4xLTAuNCwwLjJzMCwwLjMtMC4yLDAuM3MtMC41LDAuNS0wLjcsMC45Yy0wLjMtMC40LTAuNi0wLjktMC45LTEuM2MwLjItMC4xLDAuNC0wLjIsMC41LTAuMWMwLjMsMC4yLDEuNS0xLjksMS4zLTIuNSYjMTA7JiM5OyYjOTsmIzk7JiM5OyYjOTtzLTAuNS0wLjItMC44LTAuMXMtMC4zLTAuMi0wLjItMC4zczEuNC0wLjEsMC43LTAuNWMtMC4zLTAuMi0xLjEtMC4yLTEtMC41czAuNSwwLDAuNiwwYzAuNSwwLjIsMC44LTAuOCwxLjEtMC44JiMxMDsmIzk7JiM5OyYjOTsmIzk7JiM5O2MwLjUsMCwwLjMtMS0wLjItMC43cy0wLjcsMC4yLTAuOSwwLjVzLTAuNywwLjctMC43LDAuM2MwLTAuMiwxLjEtMC44LDEuMy0xLjFjMC4yLTAuMiwwLjQtMC41LDAuNS0wLjhzMS41LTAuNSwxLjgtMC43JiMxMDsmIzk7JiM5OyYjOTsmIzk7JiM5O2MwLjItMC4yLDAuNC0wLjUsMC40LTAuOHMtMC40LTAuMi0wLjUtMC40czAuNSwwLDAuNS0wLjNzLTAuNSwwLTAuNy0wLjJjMC0wLjEsMC0wLjEsMC4xLTAuMkM1My40LDMxLjYsNTQsMzEuNSw1NC43LDMxLjVoMC4yJiMxMDsmIzk7JiM5OyYjOTsmIzk7JiM5OyBNNTMuOCwxLjd2NS44Yy03LjUsMC4yLTE0LjcsMy4yLTIwLjIsOC40bC00LjEtNC4xQzM2LDUuNSw0NC43LDEuOSw1My44LDEuNyBNMjguMiwxM2w0LjEsNC4xYy01LjIsNS41LTguMiwxMi43LTguNCwyMC4yJiMxMDsmIzk7JiM5OyYjOTsmIzk7JiM5O2gtNS44QzE4LjQsMjguMiwyMiwxOS41LDI4LjIsMTMiIGNsYXNzPSJzdDAiLz4mI3hhOwkJCTwvZz4mI3hhOwkJPC9nPiYjeGE7CTwvZz4mI3hhOzwvZz4mI3hhOzwvc3ZnPg==;" parent="1" vertex="1">
          <mxGeometry x="114.08" y="240.00000000000006" width="71.87" height="60" as="geometry" />
        </mxCell>
        <mxCell id="fakd-Xu31UxTlEahAAD4-52" value="" style="endArrow=classic;html=1;rounded=0;entryX=0;entryY=0;entryDx=0;entryDy=0;" parent="1" source="ShxSNI-J_DJoyCShoE9Y-4" target="fakd-Xu31UxTlEahAAD4-51" edge="1">
          <mxGeometry width="50" height="50" relative="1" as="geometry">
            <mxPoint x="398.48" y="315.20000000000005" as="sourcePoint" />
            <mxPoint x="362.48000000000025" y="297.4699999999999" as="targetPoint" />
          </mxGeometry>
        </mxCell>
        <mxCell id="fakd-Xu31UxTlEahAAD4-53" value="API" style="rounded=0;whiteSpace=wrap;html=1;strokeColor=none;fillColor=light-dark(#B3B3B3,var(--ge-dark-color, #121212));" parent="1" vertex="1">
          <mxGeometry x="339" y="446.7700000000001" width="70" height="37.73" as="geometry" />
        </mxCell>
        <mxCell id="fakd-Xu31UxTlEahAAD4-55" value="" style="endArrow=classic;html=1;rounded=0;exitX=0.5;exitY=0;exitDx=0;exitDy=0;entryX=0;entryY=1;entryDx=0;entryDy=0;" parent="1" source="fakd-Xu31UxTlEahAAD4-53" target="fakd-Xu31UxTlEahAAD4-51" edge="1">
          <mxGeometry width="50" height="50" relative="1" as="geometry">
            <mxPoint x="213.48" y="533.1999999999999" as="sourcePoint" />
            <mxPoint x="368.48" y="365.20000000000005" as="targetPoint" />
          </mxGeometry>
        </mxCell>
        <mxCell id="fakd-Xu31UxTlEahAAD4-57" value="" style="shape=image;verticalLabelPosition=bottom;labelBackgroundColor=default;verticalAlign=top;aspect=fixed;imageAspect=0;image=data:image/webp,UklGRiAfAABXRUJQVlA4WAoAAAAIAAAA4wIA4wIAVlA4IEAeAADw6QCdASrkAuQCPnU6mUokoyIhoPBIaJAOiWlu/Fd53kjW+qaCc6q1Aaz6/+UnN48P9/PW75Txv/XT5e/jf3TqIfmb/ge4B/AP5b/xv7R1nfMB+x/7Te9v6Mv9H6hf9V/6vWV+hz5cvs8/uL+6vtbap38+/rX+H/HL3XeCf53+9dUV6g9v/3L+ve/naV/MPvT+x/wX1b/gf+R74flfqI/k382/zn5i8DwAD81/qH/M/Nb4M/rf9t6C/y3+a9gD9af9fxqf3n/dewF/Jv7P/2P8p7xP93/9f9d6M/p3/3/6H4GP51/cv+5/hu2x6QgPLWDNKMgx5l4vZBs8vF7INnl4vZBs8vF7INnl4vZBs8vF7INnl4vZBs8vF7INnl4vZBs8vF7INnl4vZBs8vF7INnl4vZBs8vF7INnl4vZBs8vF7INnl4vZBs8vF7INnl4vZBs8vF7INnl4vZBs8vF7INnl4vZBs8vF7INnl4vZBs8vF7INnl4vZBs8vF7INnl4vZBs8vF7INnl4vZBs8vF7INnl4vZBs8vF7INnl4vZBs8vF7INnl4vZBs8vF7INnl4vZBs8vF7INnl4vZBs8vF7INnl4vZBs8vF7INnl4vZBs8vF7INnl4vZBs8vF7INnl4vZBs8vF7INnl4vZBs8vF7INnl4vZBs8vF7INnl4vZBs8vF7INnl4vZBs8vF7INnl4vZBs8vF7INnl1cO/32Lr1p3ZZ3D16vExHkceJvo8y8Xsg2eXi9kGzy8Xsg2eXhzgQ/m3kwSk8XikMQG4D1B8sPphEFrxeyDZ5eL2QbPLxeyDZ5eLclH+si9zgarHHGmryuvJAYy1oyDHmXi9kGzy8Xsg2eXh5vV7QtbArXx33wFyuxC3fJ+BTewUCOzxAoMgx5l4vZBs8vF7IK6d77hK/nz1QQnSee68/zszOsmIS9SE+4S9ZeoZvxZ5eL2QbPLxeyDZ3tAdfIDxbux5eLcPf+ZVhx1INnl4vZBs8vF7INnl1h1kXSepHDy8Xsnw0BpgUWGIFBkGPMvF7INnl4vYT3+b0GaUZBjwrOvbeR0QKDIMeZeL2QbPLxehWVsXLNaMgx5lSLDqm3EYMV7H4s8vF7INnl4vZBs9ACfyvltGF2iBQXCEl//50DApTCzgGCJ1eDazqyi8y8Xsg2eXi9kGzy8XoOrKufECFVFrvu6BPwmWJK6zuhPKnZ3PNGblFYogYrUndwrDmy7qRcouauYDIqn/kUG/UqawZpRkGPMvF7INnl4vZHqguRCjK/KzRmDNKMgx5l4vZBs8qo9L451HyoGC/FS8HbN9LqxprN6XZdg7Qu4MeZeL2QbPLq3+RZ/7EPve4KE451rHIB8vQ/TwQeUjtv8iz/2HmmRcEcsFzyBMRvSPagjo/5UiSD21pwpCsJMoxPV4NjQio4cLYlt9T7QAB0w9YLGigTJsrH9ZAdPavUkVi+2D5PTxfjQnKP9L/5oiok3QjlWi5F028mZMRqXmyMd+XQ4aQFX+fPaTANZeyDZ5eL2QayfdP5lKHGcDKrCCNtoNc+4LSIYlz8I/On90fN/Hf3T3s02aMh0AuvgdIpoxIPFCxJaTpwivbCEg/ZnGkP87n1+f5D8Fd4xBe2ruXNIVtRGQ1o0vZBs8vF7IK9fxmQomdji63Zfp4N1laeQqW8W/NGUqZd+uF20A7G3+zJvc7isGHfZillfCPEVjCU40FqWArlypiXykRlWv3s3RdqJJ4Z+/4UyHAlp2DdJzotGjhc8Qi8pEah8eM+WT1/pTc3nE0dpxy4PEwFTSS58fYWZi4iuzETN5YECZ6ZaEapNDP+W/5jOqRA1imuXtTWDNKMgT91Ir29o1ZKPHewdzk3m17BvaUdj//5GeXi9kGzy8Xsg2d9hOWWXGKH0t47wG04IqreSuvBISiF3yHXbIuYy8kQFzFwy6PiJEY1uIFJF8p6aXXmk9RlJmGpbhn586aQ3VLV0o9crRjuz/wG0ntTWDNKMgx5l4vZBs8vGwYPvIsrZEGovZBs8vF7INnl4vZBs8vF7INnl4vZBs8vF7INnl4vZBs8vF7INnl4vZBs8vF7INnl4vZBs8vF7INnl4vZBs8vF7INnl4vZBs8vF7INnl4vZBs8vF7INnl4vZBt3I6tl+2DzCpXOGiXftg8wqVzhol37YPMKlag0S79sHmFSucNEu/bB5hUrnDRLv2weYVK5wX15hUrnDRLv2weYVK5w0S79sHmFSucNEu/bHyI0S79sHmFSucNEu/bB5hUrnDRLv2weYVK0nlsv2weYVK5w0S79sHmFSucNEu/bB5hUrnCiXftg8wqVzhol37YPMKlc4aJd+2DzCpXOGhxw7A2JyjL0QtFdv+Ocmy9ELRXb/jnJsvRC0V2/45ybL0QtFcBI9ovMKlc4aJd+2DzCpXOGiXftg8wqVzholgGweYVK5w0S79sHmFSucNEu/bB5hUrnDRLtkSMzpWjm1UNnkG2uAF5tVDZ5BtrgBebVQ2ePMAD+/9eIAAAAAAAAAAAAAAAAAAAAAAAAAAAAAAAAAAGQZa93XTROmb6q/S0Y1Py524zFcXhs60tWz9HtaUviJFi2i0FHUfH/PPXALzTimeXLsVzmNsMna7qtJ/vNIg0tiShRemACqyEuOncPHlvsegOSLl9Z+FDdt53lQf76ebybB5cSPU4+++TBn6I7yWTkvv1AsUkHMmw2u9aDcZLkdK/yhGwG6iqZX+wMmF6XuJAcx4apzcGAxQ1gLEc8n4AsTG6iZm35g753m/D4LeiVBWhM6AKszmtporlBjeft48PsY7zzdOgAklnQDf0I+gc45A9v0iMpXw4ZhrDHduK8s7LJZ35zvxyU3kxEOJCF8eQsk/rQDOcQ818IzFvIi2Kl1E5BvLE+LXIsjWXEDKhZBPejgMyHmO6fWN4gUQtaCbM04+Or10o9wGm1nbc+JibDgrQJ7+t5B2M+Xr22TzJKh8ENCIaw1ezTZJKgR93S5W8oVFANST9XFoDOxUoBSuVVpXLkAlRe/mqnk70U/iqAPUhTGthaQ6AQ5skPBzFuJrWmfxnUYqU+gE93WMuD0L9dTEl9IPqSIznXZVc774oGyfLgtfgjHyWP4g7UhwEZNHqqrKZ3hjY1Nk0IFOO/XShBewA1kae09+9/2vbnR2e0OrECaTGQDgFjxsaQxj49Zef1Eh3LK1fUgs2hmKCSjPtsX/HPgs5vBcSjcgpvGmEyl4GBgdWLDhZMUxE7B9jcnj7Edqyq0AMzOQ/QAZkBlDRz4M6SZLsuHVZ2QRAZF+j2xAmX9w2L9wd9khxzrY9pkgGK8FKow3ZiLGJ8rqqQ2o3EB/PAprXWdMejDhl52IHsvM14e2d52+xtmvoRRPLV/8XdEb/gricOCYI578EYAf+PhhqmekEUr7UnJBvP+9czSm2yjpAWVfORxjL6yf1CtOBsplG3f2AruMDi/ydOkizGqc88SKWqe3abz6NiR/iMLHjgvTCAddLn/ioZUloQMtuOGR01YWxAGL/Ha3Sog2/VPEpV6cmNiRofjzuAdpPktT+0+6ysaSS+6u1MwAYibHHZwty+DytK42xp7qO7/0eBrbzwQjRP99ipJIsfKA1Z/AT6N0Us5apegwI2pDPNB/DlAGetrx8xEwq1AE74uVQD1mt1Pxn/RxHv8FYM4BuutXevRr4qmpbUVQTL4Ydl1q0JJMqrUWGMLkKHeHDvxa5LlmK/tk7W0ZwwzxmelIohIKPAvD/FIxC4M3LHOgrxX74oIN74++FbN5JQSYVQ8+KoIuPnwm7N+1B6n32EirwXjN4d8G/xMWGm1zXkLJNK0DbQY3Rg5HOodEV2S/ZRiYFaYEAvSqkvP0LeMED1LaEa1pRCL9SyXz1C25wJV1MhFhpPaGyihwFvCIwxL1/Pu92wkWFPKu25IwevTWaLPS4AZHoaMviQxcCnrTyeC//Ste7aXW+gjuMAq0SGcn+e+9WLAYti7/9bO1Ugie2+UhaMAitpWVhNm0jDlXlpQHdKzRZEiXMgdz4VO0D/F87pn+P+cKCDr9ASSl6QtVlU1b+/jVRuY4YDCEoVXb5MT6yGL6m7XmihfSrDnVmw70A+lT3yva9XxyyT8+AUj6n+FPLtlHYsrCf0wG+Mf95s4C3Gpmk367Of9cDt8fzhduuZwAqlvOZqhELtQCzBypmNrhk67L6rWpuNma7SEXWOKR6s6XZi7/Hb5AdSSc1+5DuTmmkLugNy6EEUy9kiIvomrMYevl9l6Lc407YidM1Stf8td5rqsn5mRX+btuftKPRtuO6iJD8SYasFU+U3vFIOeDLfNcAOLoaaOCBFMs1LyWwacyouNDMiXsNdA274Uv9UEzsjm+tQYvnI0S5PvjWDzbH81DoBv4xJbkgxU6V3A7QoFnF2rQ6Tn36VotrxRC2Xdv87pxkVXMr5o3nxT5iKRLAXORRJePF5M9vFHMuy3QTdKkbVQUK8+HLWAvS+WK85xEaeLC0rwtvCp1uyfemVIBMR1NTRZgEVe6CPNbI3H+sfpW3RYB6RcMYcgf+5UjFSSHDCqaX/Ozthg4uPqTC4xsP7YQ7+kRezn/eEku8QGAtTNllBP0uz/EDxj/Yvk1ue6cHoyamfOYff+poFV9epXZyXuAF0rXEnC4+2c3n28ljPpVChpd+6wcIdfIS1dl81XMjfEbn78RiEBJc99Bqn4y2uQTOOz45xI7BwNJHcqS43BNApGeBSwvCVTNXwD6/2R2114h7nf/o9+SLkCh2avcubqoJWHjZSILOY6eTaYliJuPsm/OYO5y5pOouquOJgkyb6upkSnA9CS9BOXrU/IBPFQaPvPwi+7jOVDi7Ji3tyNmYPa1c8a79TQViTwOMpLdxC22XwrlnW6LtRKthW9vFnSX2cZ+IicI7hKgQcO4+K983AVh2uM5MUToLbChMQEvYLht3pEVnQVzshH6rrc6Hzm6CNRQTbeyGTFu0LOJc/iUytZ9k1ZjIMEpCzUY83epHYP4ryhEtcAzg0+h37MbTyy8L5fEs0nAmSxXhmdAFAA3IeX3oCv7NRXTSivc3EzLJ9sJR77MK9faF3zIiThHgA/Wf8GdZ4pjPbplkm10+uqFNxxG4/wd6CTfUkA9Xpfz/Lqg8IPFbJ/yjPxQn3EhnUvegv4/0rE2RovfsQdTXmLqN1OChY6g5Hb+GWyPADNFwYEZAfP5VW9hBCCzAkD74EZMckAHvQ8yiqTk0u2yQOMvXt5lwiErmnRLlmJ43FW4JjEZKfU5d8YVYAZYGhAAAAAAAA7rbQrJUvsg8R5rqH+ALKoZNt3js119uEZzfZ+Kw7BfvgGoUzmcmdL/sBatPEZ0N9/LSSZnsnTHzn6Ed+BeFC6xaS5MXWA2+05xg06FxITzxDob7+XA2FMcYXrIDsDLvCswjW6pveY6Kys/uh4NV3hKhBqw38EdNhSSz+mlcIAR6kgBSuv2oXImFolr8zDmuZcz/aY8+i2GrvaONXXISxeKn8byAzWOpy8JbKq62QKUt0IUIuYIe06Xy4cFgnjKwZuoHXRWf0HkMB4eLCvNbUThyVVQnfiYwxZFrhLkSKMw/PsR+Oi2C367EoFD3/8CCE935KuqXhUhC67xlK0shKQVhUROOQeA7Y8TEik+f6WHJxhaF3/4VvvfJHyU+mBIbNx/eDFXj5/asciZ48WZj8TwS7rWqHLC0AqkEG2PV/12SymPvMgOv6RcjbfQG51E9MFCEU8/c7V9qngYD+yZH6h+sYTPXhDqLBBXxKemICEW4UUKCnqEgeHz/zmlDxtxgUldkOt7Nn/QTmYwp0/d8OhcXt2NJ91w4ONlcCDshUFodi7w1pHLfBaV1QWMIYIFKspnaDjrFQLPBIOkqE6tzfOgY//whjED+8v95O/uY69sMdgwvNub1P7zPyvk/gWQwRJ3dQ11pg5KnAbUIae//gF+N08lYSiU+baFmN7T7fWfQ9bHARLNhG9GXvIRZcT6UB5edJU28R0Gc/H+BnSCgfFF9NbF3Qckk9R326roQuKOrcsRYpnTrpk+YB/yZZAWJUjA+8oh0WICXUTrB8mc+pPi684/WBeVi1frxfQd8A2BM70xC7IIDK7Dta5xcV5mugMD2QEpOOMKPuH5fp1vHi3xkvFGQlyv7fYB4TaAddu/Pb3r/4M3K8Lb3ibOhi//UwyF7cWLUyr9HY9tujbaEs5LgCX7kQJq2zY6dDcr7FZBqjXorIUYTKX6Kchh0NHdueRmB3I+PqDmFuZ9ApHZXV7jOuXoX/CseDPoGibtKZCawMIMSF/zZKjeqb22kkJ8K4f47OEkg+IGMiAWmqoWCrLmIVKB9PAYcspcsZBgcMTiC9WcqmBkLCjweMHsf4c50Els3QWWV4rdCRBQPQWBppcbIHMAsV0txGoXXTo39NN3iZNKp5NBjEy7N6IGvYvzvcZz7UqdB42V+JubJt56o1IRU0vCg5qRj1zG26PNxMsI3QRp1fcBa+gZ5rLUBOMn2Le/eGIfav6F90CSWJxVq2oUfflAEcgroa7WCgaxh2nvp4iw4oOnFMAEJxP5jDJyuvoyt5J67j+G7PfcoGQLXGGgGtDNXNcGiG/5lRXzGS63/i2RGXtzwYOQ4C9lfuZ8pXw4W9JLcO7iNhtiUugv1gRAtjX8Exb3F3/tzgg1qno/N3dgaSQJXvdP+lIhYylUwTFvsxgca+QMovjUBMebS0dLqzrpxl84vEH7pNI/Vv2gXwKmS3vQBEdWyOn8a1U8dCLMRYcT8wiXcEV/xOaBfG+Srwy1NyEQFYowpUBr85p9oVN9E+q2xPWLgV4eu3RjhaYuhH1XEmu4wcPzHDCAoxqqQ/thB927qvDgZUpW51s1ow4u+FKeexZQnjEiaVDKS0j9ifDSpnEqjA3VjkZ4NC6snd1F8Wml9rKpncKykTnoNIb5m7YuDoTIhPJas1hVnQPMabJdPyayAgW5ZlbljM6YHghqQqNzpNg9rYUcoIxNaCOdPCNM1T+IzOExHC1bInw135TOo9WYT5Pb/r4kixpyfazMCctycbNCb8X8cr/5iR8FflKWAKSBe+hUeg/hdSmD8WcsMw/XSvn/3Vr+kU9MByEHhXuyo2E/ccP0RBWDuxV4gqMI0sS3YiHYX3wtxP5B+LyR8aPGbCJtAspcT2F52MbphcQk5lqdnOjU0z7UHC5tMgZkmv8O7A058YCjl9aRMhte/eVb07S16GOnmw1zlXSkPVnjbHeoF3Zf6OZ6aIyqVTsAId47DGMMXNv+RIXxlDnsc/BZiQAKwVBlcYnunW7cF3zspSPL4PBu+m1TBt3nbGWFoV0EjdTmDG9+tQD9/B+U7LeLiKAJ+rBCMUCDyK8Gzdr0C0lm5PCAobrhcoaDSmfdkKSw9pzotZe/ONKHoMkM5gCJ03A/N04i3FIRilS/rvmQlF3oDFn45ntlZmBnx3fIvekbP/9/Bj/KXmQZpde7zGoN87Yc9wlG0j/69x4jZzPcGIZVdu1+qm7bGTqtdiXFCoORkUSZLAwbnt15UguIbQOiS3aNmu/paT2ZjO4MzDO3A7ZcX3jEjSvWuPFhUjNdQVQTJgsTtgX1kFSfmArfanxz/vJZz7xjS3iaf6wkOVQnnazSAevk2a0hLGaJ0jmTCpfxQgqCChF+whk7QdxwI/QTHEUOaAj0hliO+six/ZDMDHtQmmDH4wnZ4iB4h8Lnjr+0vfJy1cYCMWI4/UiZrE/viqA8AjZzZWEX00KXrdHOcDc38OTY5xMQ0PvNhgY4Qzih1PJtWTMgo5mJJbSCmctHKC+DywShC31zgWezg2NCT3tVCQraWlT/+RfX/f6PZfzjeLsoNYLDTa5/3Dlq5jw1TekJBeTJNC08swRWo5UteQ5FA3LLr2b4xeJAvz9BnX6ZMhr6p/SRbT4BmmlSH/B7fvuV6rcO2I7GmIXQuIQzqE5KWhnAEiw6dBG29yU1EQAzNbsPRyP9e9wqVa5jBg97pkwdSkjbEO6/Ch+h7PDbbjE970Rx4hknaP1XywDMTDZdlicnUqhcCm4F4A1q+43zxivkRtOP9VVpIgwz7LCJqWEsKfJLwF6QaocFDdsvHooLSBsbadm6UHmV9hiCdHeXZDAPorQfrn/urc7Old8CTXs7YPFBSiKxFuBAjsEURiLne5it2RK3L7REKB0/yYSorZ2qglJD+IHXeeM2UepgYFxv9lZ6lcADQtzSeVBmzHxx+KhjYDUVv8oT/QX6CnrZOLh2ecymSRbpMMQ2XAHmKH0WOAQCkrt8XABRbeyumZMwc/E1uRxztaiITv8e79ZAXkuMpmT6GVqBrQQlIKJlE1+O2matr49N793g6lrASZ2hzBVYSWrf5nSL75eoIfuhEZ12EYDpq2Gb3pn/S2nCtkX3ecjKlwAiBULWlElHQRFpiuJEz6SLgN+QeXJS6f9QfgF5w5h5Hyf0yAnltkkMkoW2wW4g3w0e+ISsyn2UZZMx8lqr4eLPe69aMP0/LxVLjshZYq13gMnHQ6EkUDsg7pf5gZ14YEG5svEab+36i9IO2l2u0WwW/YOkZCzBOJotUnuHx+Rb2ANVk2io9s4Dd7yyYuw/e/gBzTfBlXtK1jsGPMravfZ0bGZw+fasMpA2Q14/PeECaOsVcOkc2uLZjJY63QxfHlEEQTOpfih0UYfSJouBV+p2/DzmdTCMvUXItHuVKsGaAQS+jzEx1WyODSPwfXaivxgBpgVTa/AebVI8/L8KxVaIIBpmWmN8MIgfp2eTuHCLQNHd6OYhCgsQNh9sifOqIOPe4+x/GDO+zikBLXxyjSx56FuotFA3K+gqr1AgFa9+vQ1PzsbsanoJWGnpVACakAkBXfoDaOWOkFUYxJ6aRryb/G8zfziGj8TblzX51Y0hcZDRh0QkodjEx5EtlOMEDQ0dWP8D3Ji7hjY7+vESsdRGGJRdF5SFW3380VGc1+NB7be3sTSsPGOo5aH8sgH9JBcoGSndt/pWFxu2/KA13oJiaFcjvnvnKs+zhAad8a3Ol/WZVLozUi13azM9whPNUnBW1aLgAAAALttAsW1PXY0IR2RkzQuhYu1viAHDe/93vBUmbG82W5bkuiz/ZT/T9NGGXjWvtB+4jJkN6iQ04RlZ2ZjfL6rgWQ79gg3ozFT/V/+3B++bLhJPTHFAO5u6OgflwO0CADi//B0nyqeGlossl8nbN0dQnaP3bQMrZtc6EJeRv0g8nSfb6zCkSYPproTxWeTGCV7+LIJT/DKVg8Y/GvzWl6i4sDeZ+VsOZpFf/iP17njXi9MHXO8xyU5vtmVmh6kMiu2O1JNnPIO18KPGUlGGY64rOyxTDrVdW8c/2vsj+NdNDV091lpgSnEL9ANGYVCeFqCKJBYhfUKXmH5XSfkm6i4DP4fn+TeEIpmE49rFBZt3JdXT0fsDow2DLIfj7jA2kcZYvCgr4vYTtJRYcuEZUGBb5z85PW2Si6O1TfoM1XcgFv4q3lgGCQUXnLTB+K9pCN5T13GI9ArO9k+zJsmQXjgA3WV/X3NTcR2jnzr22ZSXIBeDf+dV6GmPsCfNbrccR+F1Bh48DcM2T1Ocoln8P7L52Irpa6WWmOBREHftCxGOYkxgXCdbwi9bmr01jnUxrA5P4OFpHkKgPF0ULfxTPfrbiRWZj3TS+kc4Dq12FXiJEpxF3G76IMAgb3OydEu5fUjRCquU/FsBeIAb1ouATjIlj85YExItobBxeZH5triDwgAITSyPtp1jSew351Oehr7QobCdThZMrpNVmUjsNl9+sy4htn/Eu9f5tBvJLQR/iYUl8Ps+2WM+coln8P7LyTIasP0IPXjaXtmNUmyqHFVxLHhWKnCPNe6y0q4AoU+fBNW4PoWbbvhS6JgOVYtDTuFjNlATfKofl4znHzMEyvcwujAI1ldulRWNTkNnBH6sIVQn1MP6drXmv3m0wTimyA0b+OurOxsrdNljccS8mgZFGsUd3zm25624jTsS6CFirEfOFifTEQmqqfCGY78BRjpoCUWMOOLv+Fwd58gN5pNCHVmkNNQljvKHJjkzTJiBmf5xRRZYAbawNd/3KWJcg/PPfjhB89HZNZON2MHI8B9ORfpN/jnLOm7Wb5vQ06GnCK9ECSW1HgmyDQx5tc4cgoAAAAAAAAAAAABa/AZnAAjQJdVBeVEcqI5URyojlRHKiOVEcqI5URyojlRHKiOVEcqI5URyojlRHKiOVEcqI5URyojgXTG4iAAAAAAxhQAWlmvW00Nx+2cAIJllsADWhxssCJ8ZcANCSATJBn3fY4AEQm9Tz9EYzQOb5+C28pGM0Dm+fgqvgfEcAAAAAAAAAAAAAARVhJRroAAABFeGlmAABJSSoACAAAAAYAEgEDAAEAAAABAAAAGgEFAAEAAABWAAAAGwEFAAEAAABeAAAAKAEDAAEAAAACAAAAEwIDAAEAAAABAAAAaYcEAAEAAABmAAAAAAAAAEgAAAABAAAASAAAAAEAAAAGAACQBwAEAAAAMDIxMAGRBwAEAAAAAQIDAACgBwAEAAAAMDEwMAGgAwABAAAA//8AAAKgBAABAAAA5AIAAAOgBAABAAAA5AIAAAAAAAA=;clipPath=inset(28% 32.67% 44% 32.33%);" parent="1" vertex="1">
          <mxGeometry x="556.29" y="362.36" width="77.43" height="61.94" as="geometry" />
        </mxCell>
        <mxCell id="fakd-Xu31UxTlEahAAD4-58" value="" style="endArrow=classic;html=1;rounded=0;entryX=0;entryY=0.5;entryDx=0;entryDy=0;exitX=1;exitY=0.5;exitDx=0;exitDy=0;" parent="1" source="fakd-Xu31UxTlEahAAD4-51" target="fakd-Xu31UxTlEahAAD4-57" edge="1">
          <mxGeometry width="50" height="50" relative="1" as="geometry">
            <mxPoint x="380.48" y="403.33" as="sourcePoint" />
            <mxPoint x="418.48" y="403.33" as="targetPoint" />
          </mxGeometry>
        </mxCell>
        <mxCell id="ShxSNI-J_DJoyCShoE9Y-4" value="" style="sketch=0;pointerEvents=1;shadow=0;dashed=0;html=1;strokeColor=none;fillColor=#505050;labelPosition=center;verticalLabelPosition=bottom;verticalAlign=top;outlineConnect=0;align=center;shape=mxgraph.office.users.csv_file;" parent="1" vertex="1">
          <mxGeometry x="350" y="298.96" width="59" height="43" as="geometry" />
        </mxCell>
        <mxCell id="ShxSNI-J_DJoyCShoE9Y-5" value="CSV" style="text;html=1;align=center;verticalAlign=middle;resizable=0;points=[];autosize=1;strokeColor=none;fillColor=none;" parent="1" vertex="1">
          <mxGeometry x="349" y="270" width="50" height="30" as="geometry" />
        </mxCell>
        <mxCell id="ShxSNI-J_DJoyCShoE9Y-9" value="" style="endArrow=none;dashed=1;html=1;dashPattern=1 3;strokeWidth=2;rounded=0;" parent="1" edge="1">
          <mxGeometry width="50" height="50" relative="1" as="geometry">
            <mxPoint x="310" y="540" as="sourcePoint" />
            <mxPoint x="310" y="130" as="targetPoint" />
          </mxGeometry>
        </mxCell>
        <mxCell id="ShxSNI-J_DJoyCShoE9Y-10" value="" style="shape=image;verticalLabelPosition=bottom;labelBackgroundColor=default;verticalAlign=top;aspect=fixed;imageAspect=0;image=https://upload.wikimedia.org/wikipedia/commons/thumb/c/c3/Python-logo-notext.svg/1200px-Python-logo-notext.svg.png;" parent="1" vertex="1">
          <mxGeometry x="370" y="130" width="70" height="70" as="geometry" />
        </mxCell>
        <mxCell id="ShxSNI-J_DJoyCShoE9Y-12" value="Python" style="text;html=1;align=center;verticalAlign=middle;resizable=0;points=[];autosize=1;strokeColor=none;fillColor=none;" parent="1" vertex="1">
          <mxGeometry x="375" y="200" width="60" height="30" as="geometry" />
        </mxCell>
        <mxCell id="ShxSNI-J_DJoyCShoE9Y-13" value="" style="endArrow=none;dashed=1;html=1;dashPattern=1 3;strokeWidth=2;rounded=0;" parent="1" edge="1">
          <mxGeometry width="50" height="50" relative="1" as="geometry">
            <mxPoint x="520" y="540" as="sourcePoint" />
            <mxPoint x="520" y="130" as="targetPoint" />
          </mxGeometry>
        </mxCell>
        <mxCell id="ShxSNI-J_DJoyCShoE9Y-14" value="" style="outlineConnect=0;dashed=0;verticalLabelPosition=bottom;verticalAlign=top;align=center;html=1;shape=mxgraph.aws3.postgre_sql_instance;fillColor=#2E73B8;gradientColor=none;" parent="1" vertex="1">
          <mxGeometry x="565" y="137" width="60" height="63" as="geometry" />
        </mxCell>
        <mxCell id="ShxSNI-J_DJoyCShoE9Y-16" value="PostgreSQL" style="text;html=1;align=center;verticalAlign=middle;resizable=0;points=[];autosize=1;strokeColor=none;fillColor=none;" parent="1" vertex="1">
          <mxGeometry x="550" y="200" width="90" height="30" as="geometry" />
        </mxCell>
        <mxCell id="ShxSNI-J_DJoyCShoE9Y-18" value="Database" style="text;html=1;align=center;verticalAlign=middle;resizable=0;points=[];autosize=1;strokeColor=none;fillColor=none;" parent="1" vertex="1">
          <mxGeometry x="560" y="420" width="70" height="30" as="geometry" />
        </mxCell>
        <mxCell id="ShxSNI-J_DJoyCShoE9Y-35" style="edgeStyle=orthogonalEdgeStyle;rounded=0;orthogonalLoop=1;jettySize=auto;html=1;entryX=0;entryY=0.5;entryDx=0;entryDy=0;" parent="1" source="ShxSNI-J_DJoyCShoE9Y-21" target="fakd-Xu31UxTlEahAAD4-53" edge="1">
          <mxGeometry relative="1" as="geometry" />
        </mxCell>
        <mxCell id="ShxSNI-J_DJoyCShoE9Y-21" value="" style="shape=image;verticalLabelPosition=bottom;labelBackgroundColor=default;verticalAlign=top;aspect=fixed;imageAspect=0;editableCssRules=.*;image=data:image/svg+xml,PHN2ZyB4bWxucz0iaHR0cDovL3d3dy53My5vcmcvMjAwMC9zdmciIGZpbGw9Im5vbmUiIHZpZXdCb3g9IjAgMC40MzE2NDEwMTI0MzAxOTEwNCAyMjAgNDMuMTM2NTU4NTMyNzE0ODQ0IiBoZWlnaHQ9IjQzLjEzNjU1ODUzMjcxNDg0NCIgd2lkdGg9IjIyMCI+JiN4YTs8ZyBjbGlwLXBhdGg9InVybCgjY2xpcDBfNDIzNl8zMzEyKSI+JiN4YTs8bWFzayBoZWlnaHQ9IjQ0IiB3aWR0aD0iNDQiIHk9IjAiIHg9IjAiIG1hc2tVbml0cz0idXNlclNwYWNlT25Vc2UiIHN0eWxlPSJtYXNrLXR5cGU6bHVtaW5hbmNlIiBpZD0ibWFzazBfNDIzNl8zMzEyIj4mI3hhOzxwYXRoIGZpbGw9IndoaXRlIiBkPSJNMjYuNDMyMSAzNS43MDc4QzI5LjI2NDcgMzUuNjcxMyAzMS45NTE2IDM1LjI2MTUgMzQuMzI4OSAzNC40NkMzNC45MyAzNC4yNTk2IDM1LjQ5NDcgMzQuMDMxOSAzNi4wNDEyIDMzLjc5NTFDMzUuMzc2MyAzNS40MTYzIDM0LjQxMDkgMzYuNzU1MiAzMy4xNDQ4IDM3Ljc2NjJDMzAuNjQwMSAzOS42MDYxIDI3LjY4OSA0MC44NzIxIDI0LjQ5MiA0MS4zNTQ5QzI1LjI5MzUgMzkuOTcwNCAyNS45NDAyIDM4LjAxMjIgMjYuNDMyMSAzNS43MTY5TTEzLjEwNjcgMzkuNjMzNEMxMy4wNDMgMzkuNTg3OSAxMi45NzkyIDM5LjU0MjMgMTIuOTE1NSAzOS41MDU5QzExLjgwNDMgMzguOTU5NCAxMS4zNDg4IDM2LjQ4MiAxMS45MzE4IDMyLjY4MzlDMTQuMDcyMiAzMy42NDkzIDE2LjQwMzkgMzQuNDA1MyAxOC44NTQgMzQuOTMzNkMyMC43MTIxIDM1LjMzNDMgMjIuNTYxMSAzNS41NzEyIDI0LjM3MzYgMzUuNjcxM0MyMy40OTAxIDM5LjUyNDEgMjIuMzUxNiA0MS41NTUzIDIxLjU5NTYgNDEuNTU1M0MyMS41NTAxIDQxLjU1NTMgMjEuNTA0NSA0MS41NTUzIDIxLjQ1OSA0MS41NzM1QzE4LjQ3MTUgNDEuNTU1MyAxNS42NDc5IDQwLjg2MyAxMy4xMTU4IDM5LjY1MTZNMi43NTk3OSAyNy4zNTU1QzIuNTg2NzQgMjYuNjk5OCAyLjQ3NzQ0IDI2LjAzNDkgMi40NDEgMjUuMzYwOEMzLjEwNTkgMjYuMzE3MiAzLjkyNTY0IDI3LjI0NjIgNC45MDAyMiAyOC4xNDhDNi4zNjY2NSAyOS41MDUxIDguMTA2MzIgMzAuNzE2NSAxMC4wNTU1IDMxLjc1NDhDOS42NTQ3MiAzMy45NzcyIDkuNTQ1NDIgMzUuOTgxIDkuODAwNDUgMzcuNjAyM0M2LjQ1NzczIDM1LjA3MDIgMy45NTI5NyAzMS40OTA3IDIuNzY4OSAyNy4zNTU1TTI3LjY5ODEgMjEuOTYzNUMyNy42OTgxIDIxLjE4MDIgMjcuNjg5IDIwLjM5NjkgMjcuNjYxNyAxOS42MTM2QzMwLjE1NzMgMTkuNDQ5NiAzMi40NzA4IDE4LjgwMjkgMzQuMzY1MyAxNy43MDk5QzM2LjExNDEgMjEuMTgwMiAzNy4wNjE0IDI0LjgzMjYgMzcuMDUyMiAyOC4yODQ2QzM3LjA1MjIgMjkuMjg2NSAzNi45NjEyIDMwLjIzMzcgMzYuODA2MyAzMS4xMzU1QzM1LjkwNDYgMzEuNjkxMSAzNC44NjYzIDMyLjE2NDcgMzMuNzAwNCAzMi41NTYzQzMxLjYzMjkgMzMuMjQ4NiAyOS4yOTIgMzMuNjMxMSAyNi44MjM3IDMzLjY5NDlDMjcuNDE1OCAzMC4xMjQ0IDI3LjcwNzIgMjUuOTg5MyAyNy43MDcyIDIxLjk2MzVNMTkuMjYzOSAzMi45NjYyQzE2Ljc3NzMgMzIuNDM3OSAxNC40Mjc0IDMxLjY0NTUgMTIuMzA1MiAzMC42NDM2QzEzLjAwNjUgMjcuNTAxMyAxNC4yOTk5IDIzLjY5NCAxNi4zNjc1IDE5LjQ2NzhDMTYuNjY4IDE4Ljg1NzYgMTYuOTY4NiAxOC4yNTY0IDE3LjI4NzQgMTcuNjY0NEMxOC43MjY1IDE4LjMxMTEgMjAuMjkzMSAxOC44MjExIDIxLjk0MTcgMTkuMTc2NEMyMy4xODk1IDE5LjQ0MDUgMjQuNDM3NCAxOS41ODYyIDI1LjY2NyAxOS42MzE4QzI1LjY4NTIgMjAuMzg3OCAyNS43MDM0IDIxLjE2MiAyNS43MDM0IDIxLjk2MzVDMjUuNzAzNCAyNi42OTA2IDI1LjMzIDMwLjYwNzIgMjQuNzgzNSAzMy42NzY3QzIyLjk4OTIgMzMuNjAzOCAyMS4xNDAyIDMzLjM2NyAxOS4yODIxIDMyLjk2NjJNNi4yNTczNSAyNi42NzI0QzQuNTU0MTEgMjUuMDk2NyAzLjM3OTE1IDIzLjQyOTkgMi43ODcxMiAyMS43NzIyQzMuMjYwNzQgMTkuOTE0MSA0LjE3MTU3IDE4LjA1NiA1LjUxOTU4IDE2LjI3MDhDNi43OTQ3MyAxNC41NzY3IDguMzg4NjcgMTMuMDU1NiAxMC4yMTAzIDExLjc0NDFDMTAuNzM4NiAxMi42OTEzIDExLjQ3NjQgMTMuNjIwMyAxMi40MTQ1IDE0LjUwMzhDMTMuMzA3MSAxNS4zNDE4IDE0LjM0NTUgMTYuMDk3OCAxNS41MDIyIDE2Ljc2MjdDMTUuMTgzNCAxNy4zNjM4IDE0Ljg3MzcgMTcuOTc0MSAxNC41NzMyIDE4LjYwMjVDMTIuNzk3MSAyMi4yNDU4IDExLjMzOTcgMjYuMTYyNCAxMC40ODM2IDI5LjcxNDZDOC44OTg3MyAyOC44MjIgNy40Nzc4NSAyNy44MDE4IDYuMjY2NDYgMjYuNjgxNU0yNi4zMzE5IDguMDI3OUMyOC42MDg5IDkuNzIyMDMgMzAuNzAzOCAxMS45MTcxIDMyLjQ1MjYgMTQuNDc2NUMzMi43ODA1IDE0Ljk1OTMgMzMuMDk5MyAxNS40NjAyIDMzLjM5MDcgMTUuOTUyMUMzMS43ODc3IDE2Ljg4MTEgMjkuNzY1NyAxNy40Mjc2IDI3LjU3MDYgMTcuNTkxNUMyNy4zODg0IDE0LjEzMDQgMjYuOTc4NiAxMC43OTY4IDI2LjMyMjggOC4wMjc5TTIyLjM1MTYgMTcuMjE4MUMyMC45MDM0IDE2LjkwODQgMTkuNTE4OSAxNi40NjIxIDE4LjI1MjkgMTUuOTA2NUMyMC4xMjAxIDEyLjYzNjcgMjIuMTY5NCA5Ljc4NTc4IDI0LjE5MTQgNy42NzI2OEMyNC44MTk5IDEwLjE1OTIgMjUuMzQ4MiAxMy40OTI4IDI1LjU3NTkgMTcuNjI4QzI0LjUxMDIgMTcuNTgyNCAyMy40MjYzIDE3LjQ1NDkgMjIuMzYwNyAxNy4yMTgxTTEzLjc4MDcgMTMuMDM3NEMxMi45NTE5IDEyLjI2MzIgMTIuMzIzNCAxMS40NTI2IDExLjg5NTMgMTAuNjQyQzEzLjc3MTYgOS41MTI1NCAxNS44NTc0IDguNTkyNjEgMTguMDcwNyA3LjkxODZDMTkuMzkxNCA3LjUyNjk1IDIwLjcyMTIgNy4yMjYzNyAyMi4wNTEgNy4wMjU5OUMyMC4xMjkyIDkuMTc1NTMgMTguMjE2NCAxMS45MTcxIDE2LjQ1ODYgMTUuMDA0OEMxNS40NTY3IDE0LjQyMTkgMTQuNTU0OSAxMy43NjYxIDEzLjc4MDcgMTMuMDQ2NU05LjQ2MzQ0IDYuNjQzNDVDOS40MzYxMiA2Ljc0MzY0IDkuNDA4NzkgNi44NDM4MyA5LjM4MTQ3IDYuOTUzMTNDOS4xODEwOSA3LjkwMDM4IDkuMTk5MyA4Ljg2NTg1IDkuNDQ1MjMgOS44MzEzMkM3LjI4NjU4IDExLjMxNiA1LjQxMDI4IDEzLjA4MyAzLjkxNjU0IDE1LjA1OTRDMy40NjExMiAxNS42NjA2IDMuMDUxMjUgMTYuMjc5OSAyLjY4NjkzIDE2Ljg5OTNDMy43OTgxMyAxMi43OTE1IDYuMjIwOTIgOS4yMjEwNyA5LjQ3MjU1IDYuNjQzNDVNMTEuMzQ4OCA3LjM3MjExQzExLjU2NzQgNi4zMzM3NyAxMi4xOTU5IDUuNDA0NzMgMTMuMTYxNCA0LjYzMDUzQzE1LjUwMjIgMy45MjkyIDE4LjIyNTYgNC4xMDIyNSAyMS4wOTQ2IDUuMTQ5N0MxOS44OTI0IDUuMzU5MTkgMTguNjgxIDUuNjQxNTQgMTcuNDk2OSA1Ljk5Njc2QzE1LjI4MzYgNi42NjE2NiAxMy4xOTc4IDcuNTcyNDkgMTEuMjg1MSA4LjY3NDU4QzExLjIzOTUgOC4yMzczOSAxMS4yNTc4IDcuODAwMTkgMTEuMzQ4OCA3LjM3MjExWk0yNy42MjUyIDQuNzMwNzJDMjguMzE3NSA0LjI4NDQyIDI4Ljk0NTkgMy45NzQ3NCAyOS40NzQyIDMuODU2MzNDMzAuNDg1MiA0LjI1NzA5IDMxLjQ3OCA0Ljc3NjI2IDMyLjQyNTMgNS40MjI5NUMzMC45MDQyIDUuMDQwNCAyOS4yOTIgNC44MTI3IDI3LjYyNTIgNC43MzA3MlpNMjQuMjQ2MSAyLjU4MTE4QzI1LjA1NjcgMi42NzIyNiAyNS45MzExIDIuODA4ODkgMjYuODIzNyAzLjAxODM4QzI2LjI2ODEgMy4zMTg5NSAyNS42ODUyIDMuNjkyMzggMjUuMDkzMiA0LjE0Nzc5QzI0LjgyOSAzLjU1NTc2IDI0LjU0NjcgMy4wMzY1OSAyNC4yNDYxIDIuNTgxMThaTTIyLjA2OTIgMy4zNzM2QzIxLjE1ODQgMy4wMjc0OCAyMC4yNjU4IDIuNzU0MjQgMTkuMzgyMyAyLjU2Mjk2QzIwLjA5MjcgMi40ODA5OSAyMC44MTIzIDIuNDM1NDUgMjEuNTQwOSAyLjQzNTQ1QzIxLjg3OCAyLjQzNTQ1IDIyLjI5NjkgMi44NTQ0MyAyMi43NDMyIDMuNjQ2ODRDMjIuNTI0NiAzLjU1NTc2IDIyLjI5NjkgMy40NTU1NyAyMi4wNzgzIDMuMzczNk0wIDIxLjk5OTlDMCAyNC4wNDkzIDAuMjkxNDYzIDI2LjAzNDkgMC44Mjg4NDggMjcuOTExMUMwLjg2NTI4MSAyOC4wMzg3IDAuODkyNjA2IDI4LjE2NjIgMC45MjkwMzkgMjguMjkzN0MwLjkyOTAzOSAyOC4zMjEgMC45NDcyNTUgMjguMzM5MiAwLjk1NjM2MyAyOC4zNjY2QzMuNjc5NzIgMzcuMTY1MSAxMS44ODYyIDQzLjU3NzMgMjEuNTY4MyA0My41NzczQzI2LjA0OTUgNDMuNTc3MyAzMC4yMTIgNDIuMjAxOSAzMy42NjQgMzkuODYxMUMzMy43MDA0IDM5Ljg0MjkgMzMuNzM2OSAzOS44MjQ3IDMzLjc2NDIgMzkuODA2NUMzMy45NzM3IDM5LjY2OTkgMzQuMTY0OSAzOS41MjQxIDM0LjM1NjIgMzkuMzY5M0MzOC4zMjc0IDM2LjQzNjQgNDEuMjYwMyAzMi4xODI5IDQyLjQ4OTkgMjcuMjU1NEM0Mi41NjI3IDI3LjAyNzYgNDIuNjE3NCAyNi43OTk5IDQyLjY3MiAyNi41NjMxQzQyLjY4MTEgMjYuNTA4NSA0Mi42OTAyIDI2LjQ1MzggNDIuNjkwMiAyNi4zOTkyQzQyLjk4MTcgMjQuOTg3NCA0My4xMzY1IDIzLjUxMTkgNDMuMTM2NSAyMi4wMTgxQzQzLjEzNjUgMTkuMTAzNSA0Mi41NjI3IDE2LjI3OTkgNDEuNDQyNCAxMy42MjAzQzQxLjIyMzggMTMuMTEwMyA0MC42NDA5IDEyLjg3MzUgNDAuMTMwOCAxMy4wODNDMzkuNjIwOCAxMy4zMDE2IDM5LjM4NCAxMy44ODQ1IDM5LjU5MzQgMTQuMzk0NUM0MC42MTM2IDE2LjgwODIgNDEuMTMyNyAxOS4zNjc2IDQxLjEzMjcgMjIuMDA5QzQxLjEzMjcgMjMuNjMwMyA0MC45MzI0IDI1LjE5NjkgNDAuNTU4OSAyNi43MDg5QzQwLjI2NzUgMjcuNjU2MSAzOS43MzkyIDI4LjUzOTYgMzkuMDE5NiAyOS4zMzJDMzkuMDM3OCAyOC45OTUgMzkuMDQ3IDI4LjY0ODkgMzkuMDQ3IDI4LjI5MzdDMzkuMDQ3IDI0LjQ0MDkgMzcuOTkwNCAyMC4zNzg2IDM2LjAxMzkgMTYuNTYyM0MzNy40NjIxIDE1LjMyMzYgMzguMzgyMSAxMy43ODQzIDM4LjcwMDggMTIuMDYyOEMzOC44MDEgMTEuNTE2MyAzOC40NDU4IDEwLjk5NzIgMzcuODk5MyAxMC44OTdDMzcuMzUyOCAxMC43OTY4IDM2LjgzMzcgMTEuMTUyIDM2LjczMzUgMTEuNjk4NUMzNi41MjQgMTIuODM3IDM1LjkzMTkgMTMuODc1NCAzNS4wMTIgMTQuNzU4OUMzNC43MjA1IDE0LjI4NTIgMzQuNDI5MSAxMy44MTE2IDM0LjExMDMgMTMuMzQ3MUMzMi4zNTI0IDEwLjc2OTUgMzAuMjU3NSA4LjUyODg1IDI3Ljk3MTQgNi43NTI3NUMzMC45OTUzIDYuOTUzMTMgMzMuNzkxNSA3LjY4MTc5IDM2LjA0MTIgOC45Mzg3MkMzNi4zOTY1IDkuMTM5MSAzNi44NjEgOS4xMjk5OSAzNy4xODg5IDguODU2NzVDMzcuNjE3IDguNTAxNTIgMzcuNjcxNiA3Ljg3MzA2IDM3LjMxNjQgNy40NDQ5N0MzNC4wODMgMi45MjcyOSAyOC40OTA1IDAuNDMxNjQxIDIxLjU2ODMgMC40MzE2NDFDOS42NzI5MyAwLjQzMTY0MSAwIDEwLjEwNDYgMCAyMS45OTk5WiIvPiYjeGE7PC9tYXNrPiYjeGE7PGcgbWFzaz0idXJsKCNtYXNrMF80MjM2XzMzMTIpIj4mI3hhOzxwYXRoIGZpbGw9InVybCgjcGFpbnQwX3JhZGlhbF80MjM2XzMzMTIpIiBkPSJNNDMuMTM2NSAwLjQzMTY0MUgwVjQzLjU2ODJINDMuMTM2NVYwLjQzMTY0MVoiLz4mI3hhOzwvZz4mI3hhOzxwYXRoIGZpbGw9IiMwMDJGNTQiIGQ9Ik0yMTUuMDU0IDE1LjY5N0MyMTguMjQyIDE1LjY5NyAyMjAgMTcuMjM2MyAyMjAgMjAuMDQxNkMyMjAgMjIuNjgzIDIxOC4yNjkgMjQuMjY3OSAyMTUuMzczIDI0LjI2NzlIMjEzLjM0MlYyOC4zMTE5SDIxMC42NTVWMTUuNjk3SDIxNS4wNTRaTTIxMy4zNDIgMjIuMDYzN0gyMTQuOTQ1QzIxNi41MDIgMjIuMDYzNyAyMTcuMjk1IDIxLjM4MDYgMjE3LjI5NSAyMC4wMzI1QzIxNy4yOTUgMTguNjg0NSAyMTYuNDMgMTcuOTE5NCAyMTQuODYzIDE3LjkxOTRIMjEzLjM0MlYyMi4wNjM3Wk0yMDUuNzA5IDIzLjI1NjhDMjA1LjcwOSAyNS4xMDU4IDIwNC45OTkgMjYuMDA3NSAyMDMuNTQxIDI2LjAwNzVDMjAyLjA4NCAyNi4wMDc1IDIwMS4zMTkgMjUuMDc4NSAyMDEuMzE5IDIzLjI1NjhWMTUuNjk3SDE5OC42MzJWMjMuMDc0N0MxOTguNjMyIDI0Ljg3ODEgMTk5LjA3OCAyNi4yNTM0IDE5OS45NzEgMjcuMTQ2MUMyMDAuOCAyNy45ODQgMjAyLjAwMiAyOC40MDMgMjAzLjU0MSAyOC40MDNDMjA1Ljc1NSAyOC40MDMgMjA4LjM5NiAyNy40NzQgMjA4LjM5NiAyMy4wNjU2VjE1LjY3ODhIMjA1LjcwOVYyMy4yMzg2VjIzLjI1NjhaTTE5MS4zMDkgMTUuNTg3N0MxOTQuMDMyIDE1LjU4NzcgMTk2Ljk0NyAxNy4yNzI3IDE5Ni45NDcgMjIuMDE4MUMxOTYuOTQ3IDI2Ljc2MzUgMTk0LjAzMiAyOC40MTIxIDE5MS4zMDkgMjguNDEyMUMxODguNTg2IDI4LjQxMjEgMTg1LjY1MyAyNi43MzYyIDE4NS42NTMgMjIuMDE4MUMxODUuNjUzIDE3LjMwMDEgMTg4LjU3NyAxNS41ODc3IDE5MS4zMDkgMTUuNTg3N1pNMTkxLjMwOSAyNi4wNjIyQzE5Mi4zNzUgMjYuMDYyMiAxOTQuMTY5IDI1LjUzMzkgMTk0LjE2OSAyMi4wMTgxQzE5NC4xNjkgMTguNTAyNCAxOTIuMzc1IDE3Ljk3NDEgMTkxLjMwOSAxNy45NzQxQzE4OS40NTEgMTcuOTc0MSAxODguNDMxIDE5LjQxMzIgMTg4LjQzMSAyMi4wMTgxQzE4OC40MzEgMjQuNjIzMSAxODkuNDUxIDI2LjA2MjIgMTkxLjMwOSAyNi4wNjIyWk0xODIuODg0IDI0LjQ4NjVDMTgzLjMzIDI1LjM4ODIgMTgzLjcxMyAyNi4xNzE1IDE4NC41OTYgMjYuMTcxNUgxODUuMjM0VjI4LjI0ODJMMTg1LjE0MyAyOC4yNzU1QzE4NS4xNDMgMjguMjc1NSAxODQuNjYgMjguNDAzIDE4My44NCAyOC40MDNDMTgxLjcxOCAyOC40MDMgMTgxLjA3MSAyNi45NDU3IDE4MC40OTggMjUuNjUyM0MxODAuMDI0IDI0LjU5NTggMTc5LjYyMyAyMy42ODQ5IDE3OC41MTIgMjMuNjg0OUgxNzcuMzI4VjI4LjMxMTlIMTc0LjY0MVYxNS42OTdIMTc5LjExM0MxODIuMzgzIDE1LjY5NyAxODMuOTA0IDE2Ljk3MjIgMTgzLjkwNCAxOS43MDQ2QzE4My45MDQgMjEuMzk4OCAxODIuODg0IDIyLjQzNzEgMTgxLjg3MyAyMi44OTI1QzE4Mi4zMTkgMjMuMzI5NyAxODIuNjExIDIzLjkxMjYgMTgyLjg5MyAyNC40ODY1TTE3Ny4zMTkgMjEuNTlIMTc4LjgyMkMxODAuMzE1IDIxLjU5IDE4MS4yNDQgMjAuODk3OCAxODEuMjQ0IDE5Ljc2ODRDMTgxLjI0NCAxOC41OTM0IDE4MC40MzQgMTcuOTE5NCAxNzkuMDIyIDE3LjkxOTRIMTc3LjMyOFYyMS41OUgxNzcuMzE5Wk0xNjcuNDgyIDIzLjY5NEgxNzAuMjUxVjIzLjgzMDdDMTcwLjI1MSAyNC42NTA0IDE2OS45NTkgMjYuMDE2NiAxNjguMDI4IDI2LjAxNjZDMTY2LjIwNyAyNi4wMTY2IDE2NS4xMTQgMjQuNTIyOSAxNjUuMTE0IDIyLjAwOUMxNjUuMTE0IDE5LjQ5NTEgMTY2LjE1MiAxNy45NjUgMTY3Ljk3NCAxNy45NjVDMTcwLjEzMiAxNy45NjUgMTcwLjIxNCAyMC4xNTA5IDE3MC4yMTQgMjAuMjQyVjIwLjM4NzhMMTcyLjcyOCAxOS45OTYxVjE5Ljg4NjhDMTcyLjcyOCAxOC45NzYgMTcxLjkxOCAxNS41Nzg2IDE2Ny45NDYgMTUuNTc4NkMxNjQuMzg1IDE1LjU3ODYgMTYyLjM0NSAxNy45MTk0IDE2Mi4zNDUgMjIuMDA5QzE2Mi4zNDUgMjYuMDk4NiAxNjQuNDQ5IDI4LjQwMyAxNjcuOTgzIDI4LjQwM0MxNzEuNTE3IDI4LjQwMyAxNzIuNzkyIDI1LjkyNTYgMTcyLjc5MiAyMy44MTI0VjIxLjYxNzRIMTY3LjQ5MVYyMy42ODQ5TDE2Ny40ODIgMjMuNjk0Wk0xNTkuNDM5IDE1LjY5N0gxNTYuMjQyTDE1Mi4wNzEgMjEuMzcxNFYxNS42OTdIMTQ5LjM0N1YyOC4zMTE5SDE1Mi4wNzFWMjIuNTFMMTU2LjM1MiAyOC4zMTE5SDE1OS41ODVMMTU0LjcwMyAyMS45NTQ0TDE1OS40MzkgMTUuNzA2MVYxNS42OTdaTTE0NC4yNDcgMjMuNDg0NUwxMzkuODM4IDE1LjY5N0gxMzcuMTE1VjI4LjMxMTlIMTM5LjgwMlYyMC43ODg1TDE0NC4xOTIgMjguMzExOUgxNDYuOTM0VjE1LjY5N0gxNDQuMjQ3VjIzLjQ4NDVaTTEzMS43OTYgMTUuNzc5TDEzNi4zOTYgMjguMzExOUgxMzMuNTk5TDEzMi41MjUgMjUuMjI0MkgxMjguMzI2TDEyNy4yODcgMjguMzExOUgxMjQuNDczTDEyOS4xIDE1LjY5N0gxMzEuNzY5TDEzMS43OTYgMTUuNzc5Wk0xMzAuNDMgMTkuMTMwOEwxMjkuMDYzIDIzLjExMTFIMTMxLjgyM0wxMzAuNDMgMTkuMTMwOFpNMTIxLjk3NyAyMS42NTM4QzEyMi45NDMgMjEuOTM2MiAxMjQuMjE4IDIyLjgxOTcgMTI0LjIxOCAyNC43MTQyQzEyNC4yMTggMjYuOTkxMiAxMjIuNjA2IDI4LjMwMjggMTE5Ljc4MiAyOC4zMDI4SDExNC40NjNWMTUuNjg3OUgxMTkuMjcyQzEyMi4wMDUgMTUuNjg3OSAxMjMuMzg5IDE2LjgyNjQgMTIzLjM4OSAxOS4wNzYyQzEyMy4zODkgMjAuODE1OCAxMjIuNTk3IDIxLjQzNTIgMTIxLjk4NiAyMS42NDQ3TTExOC45ODEgMjAuODUyM0MxMjAuMTAxIDIwLjg1MjMgMTIwLjYyIDIwLjM3ODYgMTIwLjYyIDE5LjM2NzZDMTIwLjYyIDE4LjM1NjYgMTE5Ljk1NSAxNy45MTk0IDExOC42NDQgMTcuOTE5NEgxMTcuMTQxVjIwLjg0MzJIMTE4Ljk3MkwxMTguOTgxIDIwLjg1MjNaTTExNy4xNSAyNi4wODA0SDExOS4yNTRDMTIwLjYyOSAyNi4wODA0IDEyMS4yNjcgMjUuNTYxMiAxMjEuMjY3IDI0LjQ1OTFDMTIxLjI2NyAyMy4xMDIgMTIwLjE0NiAyMi44MTk3IDExOS4xOTkgMjIuODE5N0gxMTcuMTVWMjYuMDgwNFpNMTAzLjM5NiAxNS42OTdDMTA3LjMyMiAxNS42OTcgMTA5LjY2MyAxOC4xMjg5IDEwOS42NjMgMjIuMjE4NUMxMDkuNjYzIDI2LjMwODEgMTA3LjU2OCAyOC4zMTE5IDEwMy45MjUgMjguMzExOUg5OS42NTNWMTUuNjk3SDEwMy4zOTZaTTEwMi4zNCAyNi4wODA0SDEwMy45MDdDMTA1LjgzNyAyNi4wODA0IDEwNi45OTQgMjQuNjIzMSAxMDYuOTk0IDIyLjE4MjFDMTA2Ljk5NCAxOS4zNTg1IDEwNS43NzQgMTcuOTI4NSAxMDMuMzYgMTcuOTI4NUgxMDIuMzRWMjYuMDgwNFpNOTIuOTQwMiAxNS42OTdIOTAuMjUzM1YyOC4zMTE5SDk4LjM5NlYyNi4wODA0SDkyLjk0MDJWMTUuNjk3Wk04Ni42MzczIDI0LjQ4NjVDODcuMDgzNiAyNS4zODgyIDg3LjQ2NjIgMjYuMTcxNSA4OC4zNDk3IDI2LjE3MTVIODguOTg3M1YyOC4yNDgyTDg4Ljg5NjIgMjguMjc1NUM4OC44OTYyIDI4LjI3NTUgODguNDEzNCAyOC40MDMgODcuNTkzNyAyOC40MDNDODUuNDcxNSAyOC40MDMgODQuODI0OCAyNi45NDU3IDg0LjI1MSAyNS42NTIzQzgzLjc3NzQgMjQuNTk1OCA4My4zNzY2IDIzLjY4NDkgODIuMjY1NCAyMy42ODQ5SDgxLjA4MTNWMjguMzExOUg3OC4zOTQ0VjE1LjY5N0g4Mi44NjY1Qzg2LjEyNzMgMTUuNjk3IDg3LjY1NzUgMTYuOTcyMiA4Ny42NTc1IDE5LjcwNDZDODcuNjU3NSAyMS4zOTg4IDg2LjYzNzMgMjIuNDM3MSA4NS42MjYzIDIyLjg5MjVDODYuMDcyNiAyMy4zMjk3IDg2LjM2NDEgMjMuOTEyNiA4Ni42NDY0IDI0LjQ4NjVNODEuMDgxMyAyMS41OUg4Mi41ODQyQzg0LjA3NzkgMjEuNTkgODQuOTk3OSAyMC44OTc4IDg0Ljk5NzkgMTkuNzY4NEM4NC45OTc5IDE4LjU5MzQgODQuMTg3MiAxNy45MTk0IDgyLjc3NTQgMTcuOTE5NEg4MS4wODEzVjIxLjU5Wk03MS4yMjYyIDE1LjU4NzdDNzMuOTQ5NiAxNS41ODc3IDc2Ljg2NDIgMTcuMjcyNyA3Ni44NjQyIDIyLjAxODFDNzYuODY0MiAyNi43NjM1IDczLjk0OTYgMjguNDEyMSA3MS4yMjYyIDI4LjQxMjFDNjguNTAyOSAyOC40MTIxIDY1LjU3OTEgMjYuNzM2MiA2NS41NzkxIDIyLjAxODFDNjUuNTc5MSAxNy4zMDAxIDY4LjUwMjkgMTUuNTg3NyA3MS4yMjYyIDE1LjU4NzdaTTcxLjIyNjIgMjYuMDYyMkM3Mi4yOTE5IDI2LjA2MjIgNzQuMDg2MiAyNS41MzM5IDc0LjA4NjIgMjIuMDE4MUM3NC4wODYyIDE4LjUwMjQgNzIuMjkxOSAxNy45NzQxIDcxLjIyNjIgMTcuOTc0MUM2OS4zNjgxIDE3Ljk3NDEgNjguMzQ4IDE5LjQxMzIgNjguMzQ4IDIyLjAxODFDNjguMzQ4IDI0LjYyMzEgNjkuMzY4MSAyNi4wNjIyIDcxLjIyNjIgMjYuMDYyMlpNNjIuMTU0NCAxNS42OTdINjUuMTg3NUw2MS41NjI0IDI4LjMxMTlINTguNTI5NEw1Ni4zMjUyIDIwLjQwNkw1NC4wOTM3IDI4LjMxMTlINTEuMDYwNkw0Ny40MzU1IDE1LjY5N0g1MC41NTk3TDUyLjY4MTkgMjQuODk2M0w1NS4yMjMxIDE1LjY5N0g1Ny40ODE5TDU5Ljk0MTEgMjQuODk2M0w2Mi4xNDUzIDE1LjY5N0g2Mi4xNTQ0WiIvPiYjeGE7PC9nPiYjeGE7PGRlZnM+JiN4YTs8cmFkaWFsR3JhZGllbnQgZ3JhZGllbnRUcmFuc2Zvcm09InRyYW5zbGF0ZSg0MS4zMjMxIDkuNzYzMTkpIHNjYWxlKDM1Ljk2MDIgMzUuOTYwMikiIGdyYWRpZW50VW5pdHM9InVzZXJTcGFjZU9uVXNlIiByPSIxIiBjeT0iMCIgY3g9IjAiIGlkPSJwYWludDBfcmFkaWFsXzQyMzZfMzMxMiI+JiN4YTs8c3RvcCBzdG9wLWNvbG9yPSJ3aGl0ZSIvPiYjeGE7PHN0b3Agc3RvcC1jb2xvcj0iI0VBRjhGRCIgb2Zmc2V0PSIwLjA2Ii8+JiN4YTs8c3RvcCBzdG9wLWNvbG9yPSIjQjVFN0ZBIiBvZmZzZXQ9IjAuMTgiLz4mI3hhOzxzdG9wIHN0b3AtY29sb3I9IiM2MENDRjUiIG9mZnNldD0iMC4zNiIvPiYjeGE7PHN0b3Agc3RvcC1jb2xvcj0iIzAwQUVFRiIgb2Zmc2V0PSIwLjU0Ii8+JiN4YTs8c3RvcCBzdG9wLWNvbG9yPSIjMDAyRjU0IiBvZmZzZXQ9IjEiLz4mI3hhOzwvcmFkaWFsR3JhZGllbnQ+JiN4YTs8Y2xpcFBhdGggaWQ9ImNsaXAwXzQyMzZfMzMxMiI+JiN4YTs8cmVjdCB0cmFuc2Zvcm09InRyYW5zbGF0ZSgwIDAuNDMxNjQxKSIgZmlsbD0id2hpdGUiIGhlaWdodD0iNDMuMTM2NSIgd2lkdGg9IjIyMCIvPiYjeGE7PC9jbGlwUGF0aD4mI3hhOzwvZGVmcz4mI3hhOzwvc3ZnPg==;" parent="1" vertex="1">
          <mxGeometry x="70" y="450" width="160" height="31.27" as="geometry" />
        </mxCell>
        <mxCell id="ShxSNI-J_DJoyCShoE9Y-22" value="" style="endArrow=none;dashed=1;html=1;dashPattern=1 3;strokeWidth=2;rounded=0;" parent="1" edge="1">
          <mxGeometry width="50" height="50" relative="1" as="geometry">
            <mxPoint x="660" y="243.5" as="sourcePoint" />
            <mxPoint x="260" y="243.5" as="targetPoint" />
          </mxGeometry>
        </mxCell>
        <mxCell id="ShxSNI-J_DJoyCShoE9Y-37" value="Population Data" style="text;html=1;align=center;verticalAlign=middle;resizable=0;points=[];autosize=1;strokeColor=none;fillColor=none;" parent="1" vertex="1">
          <mxGeometry x="95" y="477.77" width="110" height="30" as="geometry" />
        </mxCell>
        <mxCell id="ShxSNI-J_DJoyCShoE9Y-38" value="Crime Data" style="text;html=1;align=center;verticalAlign=middle;resizable=0;points=[];autosize=1;strokeColor=none;fillColor=none;" parent="1" vertex="1">
          <mxGeometry x="110.01" y="300" width="80" height="30" as="geometry" />
        </mxCell>
        <mxCell id="6GwZupvUR-NDnrlG3Xd5-4" style="rounded=0;orthogonalLoop=1;jettySize=auto;html=1;exitX=0.731;exitY=0.5;exitDx=0;exitDy=0;exitPerimeter=0;" parent="1" source="WMTJtazvUfUQ1HtJnvUC-1" edge="1" target="ShxSNI-J_DJoyCShoE9Y-4">
          <mxGeometry relative="1" as="geometry">
            <mxPoint x="241" y="330" as="targetPoint" />
            <mxPoint x="201" y="349" as="sourcePoint" />
          </mxGeometry>
        </mxCell>
        <mxCell id="6GwZupvUR-NDnrlG3Xd5-2" value="Immigration Data" style="text;html=1;align=center;verticalAlign=middle;resizable=0;points=[];autosize=1;strokeColor=none;fillColor=none;" parent="1" vertex="1">
          <mxGeometry x="95.00999999999999" y="372.76" width="110" height="30" as="geometry" />
        </mxCell>
        <mxCell id="WMTJtazvUfUQ1HtJnvUC-1" value="" style="shape=image;verticalLabelPosition=bottom;labelBackgroundColor=default;verticalAlign=top;aspect=fixed;imageAspect=0;image=https://upload.wikimedia.org/wikipedia/commons/f/f6/Eurostat_Newlogo.png;" parent="1" vertex="1">
          <mxGeometry x="85" y="341.96" width="130" height="42.78" as="geometry" />
        </mxCell>
      </root>
    </mxGraphModel>
  </diagram>
</mxfile>
